<svg xmlns="http://www.w3.org/2000/svg" xmlns:xlink="http://www.w3.org/1999/xlink" version="1.1" viewBox="0 0 1000 1000" preserveAspectRatio="xMinYMid"  xml:space="preserve">
<g transform="matrix(17.8253 0 0 17.8253 503.0634 503.0634)" id="surface1">
<path style="stroke: none; stroke-width: 1; stroke-dasharray: none; stroke-linecap: butt; stroke-dashoffset: 0; stroke-linejoin: miter; stroke-miterlimit: 4; is-custom-font: none; font-file-url: none; fill: rgb(193,15,35); fill-rule: nonzero; opacity: 1;" transform=" translate(-24.1719, -25.6719)" d="M 12.855469 51.171875 C 11.253906 51.171875 9.648438 51.171875 7.984375 51.097656 C 7.140625 50.851562 6.367188 50.539062 5.585938 50.527344 C 4.171875 50.507812 3.410156 49.636719 2.683594 48.660156 C 1.15625 46.597656 0.695312 44.195312 0.53125 41.726562 C 0.445312 40.484375 0.53125 39.234375 0.5 37.992188 C 0.496094 37.792969 0.285156 37.597656 0.171875 37.398438 C 0.171875 36.546875 0.171875 35.691406 0.246094 34.773438 C 0.363281 33.539062 0.414062 32.367188 0.445312 31.195312 C 0.445312 31.167969 0.265625 31.136719 0.171875 31.109375 C 0.171875 23.625 0.171875 16.144531 0.246094 8.59375 C 0.441406 7.4375 0.625 6.347656 0.675781 5.25 C 0.796875 2.605469 1.261719 1.941406 3.867188 1.175781 C 4.5 0.992188 5.214844 1.074219 5.851562 0.898438 C 7.203125 0.523438 8.523438 0.25 9.875 0.886719 C 10.34375 1.105469 11.542969 0.636719 11.828125 0.171875 C 12.40625 0.171875 12.980469 0.171875 13.605469 0.230469 C 13.996094 0.476562 14.335938 0.808594 14.6875 0.820312 C 15.5 0.851562 16.320312 0.691406 17.136719 0.671875 C 18.421875 0.644531 19.703125 0.683594 20.988281 0.664062 C 21.574219 0.65625 22.25 0.878906 22.628906 0.171875 C 23.261719 0.171875 23.894531 0.171875 24.585938 0.238281 C 25.144531 0.429688 25.644531 0.660156 26.148438 0.660156 C 27.628906 0.664062 29.109375 0.519531 30.589844 0.542969 C 31.660156 0.554688 32.726562 0.796875 33.796875 0.839844 C 36.210938 0.933594 38.632812 0.863281 41.035156 1.066406 C 42.160156 1.160156 43.335938 1.570312 44.320312 2.128906 C 45.085938 2.5625 45.550781 3.484375 46.503906 3.785156 C 46.714844 3.855469 46.90625 4.246094 46.953125 4.515625 C 47.125 5.472656 47.25 6.441406 47.355469 7.410156 C 47.398438 7.8125 47.347656 8.222656 47.332031 8.628906 C 47.289062 9.808594 47.164062 10.992188 47.214844 12.167969 C 47.265625 13.488281 47.816406 14.785156 47.339844 16.125 C 47.308594 16.21875 47.363281 16.339844 47.386719 16.449219 C 47.472656 16.875 47.625 17.296875 47.644531 17.722656 C 47.726562 19.523438 47.761719 21.324219 47.84375 23.125 C 47.851562 23.296875 48.058594 23.460938 48.171875 23.628906 C 48.171875 24.9375 48.171875 26.242188 48.109375 27.601562 C 47.765625 27.910156 47.652344 28.132812 48.171875 28.21875 C 48.171875 33.097656 48.171875 37.972656 48.097656 42.914062 C 47.96875 43.039062 47.863281 43.101562 47.867188 43.15625 C 47.984375 44.839844 47.488281 46.414062 46.945312 47.960938 C 46.710938 48.632812 46.367188 49.453125 45.816406 49.785156 C 44.9375 50.320312 43.84375 50.496094 42.847656 50.84375 C 42.714844 50.890625 42.625 51.058594 42.515625 51.171875 C 34.855469 51.171875 27.191406 51.171875 19.46875 51.097656 C 19.316406 50.964844 19.230469 50.851562 19.140625 50.851562 C 17.15625 50.835938 15.175781 50.832031 13.191406 50.847656 C 13.078125 50.847656 12.96875 51.058594 12.855469 51.171875 M 21.246094 13.21875 C 21.125 13.761719 20.960938 14.300781 20.894531 14.851562 C 20.558594 17.648438 20.246094 20.449219 19.941406 23.25 C 19.921875 23.4375 20.035156 23.632812 20.082031 23.828125 C 20.277344 23.738281 20.570312 23.699219 20.644531 23.554688 C 20.921875 23.003906 21.261719 22.4375 21.339844 21.84375 C 21.644531 19.46875 21.867188 17.082031 22.101562 14.699219 C 22.171875 14.007812 22.007812 13.398438 21.402344 13.035156 C 21.460938 12.824219 21.519531 12.613281 21.628906 12.347656 C 21.613281 12.257812 21.597656 12.167969 21.605469 11.953125 C 21.277344 11.5625 21.019531 10.972656 20.601562 10.824219 C 19.863281 10.558594 19.535156 10.113281 19.238281 9.449219 C 19.054688 9.035156 18.632812 8.589844 18.214844 8.441406 C 17.394531 8.160156 16.503906 8.078125 15.640625 7.90625 C 15.191406 7.816406 14.929688 7.976562 14.863281 8.441406 C 14.785156 8.988281 14.929688 9.433594 15.527344 9.527344 C 16.164062 9.632812 16.820312 9.621094 17.460938 9.714844 C 17.792969 9.761719 18.109375 9.929688 18.433594 10.042969 C 18.191406 10.269531 17.964844 10.511719 17.707031 10.71875 C 17.371094 10.996094 16.910156 11.183594 16.683594 11.527344 C 16.429688 11.917969 16.515625 12.363281 17.132812 12.453125 C 18.320312 12.625 18.550781 12.890625 18.40625 14.109375 C 18.253906 15.425781 18.023438 16.730469 17.851562 18.042969 C 17.738281 18.882812 17.636719 19.722656 17.59375 20.566406 C 17.582031 20.796875 17.800781 21.039062 17.914062 21.273438 C 18.070312 21.097656 18.308594 20.949219 18.371094 20.75 C 18.65625 19.832031 18.992188 18.914062 19.121094 17.972656 C 19.328125 16.464844 19.363281 14.933594 19.523438 13.421875 C 19.558594 13.105469 19.769531 12.652344 20.015625 12.558594 C 20.269531 12.460938 20.667969 12.71875 20.992188 12.84375 C 21.113281 12.890625 21.207031 13 21.246094 13.21875 M 28.894531 9.011719 C 28.863281 10.566406 28.84375 12.121094 28.796875 13.679688 C 28.785156 14.066406 28.734375 14.472656 28.605469 14.835938 C 28.535156 15.027344 28.269531 15.261719 28.078125 15.273438 C 27.882812 15.285156 27.5625 15.089844 27.492188 14.910156 C 27.34375 14.527344 27.265625 14.09375 27.261719 13.679688 C 27.257812 11.929688 27.324219 10.179688 27.28125 8.433594 C 27.269531 8 26.9375 7.574219 26.753906 7.144531 C 26.527344 7.621094 26.117188 8.09375 26.109375 8.574219 C 26.078125 10.609375 26.167969 12.644531 26.207031 14.679688 C 26.226562 15.867188 26.730469 16.855469 27.425781 17.777344 C 27.835938 18.320312 28.292969 18.84375 28.613281 19.433594 C 28.742188 19.664062 28.675781 20.242188 28.503906 20.355469 C 27.375 21.066406 27.292969 22.226562 27.164062 23.328125 C 27.121094 23.667969 27.46875 24.292969 27.765625 24.386719 C 28.730469 24.683594 28.953125 25.351562 28.988281 26.195312 C 29.0625 28.03125 29.15625 29.867188 29.195312 31.707031 C 29.246094 34.21875 29.277344 36.730469 29.269531 39.246094 C 29.265625 41.222656 29.167969 43.199219 29.164062 45.175781 C 29.160156 45.679688 29.355469 46.179688 29.457031 46.683594 C 29.546875 46.6875 29.632812 46.691406 29.71875 46.691406 C 29.816406 46.453125 29.980469 46.214844 29.992188 45.972656 C 30.0625 44.199219 30.109375 42.421875 30.140625 40.648438 C 30.15625 39.664062 30.097656 38.679688 30.121094 37.695312 C 30.167969 35.714844 30.273438 33.738281 30.308594 31.761719 C 30.34375 29.753906 30.28125 27.742188 30.367188 25.734375 C 30.386719 25.285156 30.75 24.648438 31.132812 24.464844 C 31.765625 24.160156 32.046875 23.710938 31.972656 23.15625 C 31.863281 22.34375 31.742188 21.429688 31.292969 20.792969 C 30.582031 19.773438 30.546875 18.90625 31.203125 17.917969 C 31.5625 17.375 31.914062 16.824219 32.203125 16.242188 C 32.480469 15.691406 32.839844 15.109375 32.875 14.523438 C 33.003906 12.292969 33.019531 10.058594 33.066406 7.824219 C 33.070312 7.660156 33.035156 7.472656 32.953125 7.332031 C 32.867188 7.1875 32.71875 7.035156 32.5625 6.988281 C 32.488281 6.964844 32.28125 7.164062 32.238281 7.292969 C 32.144531 7.585938 32.074219 7.898438 32.070312 8.203125 C 32.046875 9.5625 32.089844 10.921875 32.03125 12.277344 C 32 13.027344 31.839844 13.78125 31.675781 14.515625 C 31.632812 14.710938 31.363281 14.976562 31.179688 14.988281 C 30.988281 15 30.671875 14.789062 30.597656 14.605469 C 30.449219 14.21875 30.363281 13.789062 30.355469 13.375 C 30.332031 11.394531 30.363281 9.414062 30.332031 7.433594 C 30.320312 6.777344 30.1875 6.128906 30.109375 5.476562 C 29.980469 5.445312 29.847656 5.417969 29.714844 5.390625 C 29.523438 5.726562 29.222656 6.046875 29.160156 6.40625 C 29.015625 7.210938 28.992188 8.035156 28.894531 9.011719 M 36.628906 23.378906 C 36.703125 23.902344 36.929688 24.273438 37.511719 24.367188 C 38.203125 24.480469 38.398438 24.949219 38.414062 25.59375 C 38.441406 26.921875 38.5 28.253906 38.585938 29.578125 C 38.605469 29.929688 38.769531 30.273438 38.863281 30.621094 C 38.976562 30.613281 39.085938 30.609375 39.195312 30.601562 C 39.265625 30.175781 39.371094 29.757812 39.398438 29.332031 C 39.472656 28.117188 39.558594 26.902344 39.550781 25.6875 C 39.546875 24.875 39.851562 24.398438 40.648438 24.226562 C 41.285156 24.089844 41.523438 23.648438 41.519531 23.046875 C 41.511719 21.8125 41.226562 20.675781 40.1875 19.886719 C 39.632812 19.464844 39.5 19.007812 39.851562 18.4375 C 40.292969 17.71875 40.78125 17.027344 41.230469 16.316406 C 41.511719 15.871094 41.84375 15.433594 42.003906 14.945312 C 42.765625 12.605469 42.550781 10.191406 42.488281 7.789062 C 42.480469 7.574219 42.378906 7.359375 42.320312 7.148438 C 42.230469 7.113281 42.140625 7.078125 42.050781 7.042969 C 41.859375 7.417969 41.53125 7.78125 41.5 8.171875 C 41.363281 9.804688 41.332031 11.449219 41.226562 13.089844 C 41.195312 13.609375 41.054688 14.125 40.34375 14.109375 C 39.703125 14.09375 39.40625 13.675781 39.363281 13.128906 C 39.226562 11.328125 39.074219 9.527344 39.625 7.746094 C 39.8125 7.136719 39.832031 6.476562 39.933594 5.816406 C 38.734375 5.777344 38.429688 6.042969 38.417969 7.011719 C 38.394531 8.597656 38.417969 10.1875 38.386719 11.773438 C 38.375 12.363281 38.339844 12.96875 38.1875 13.535156 C 38.097656 13.871094 37.757812 14.140625 37.535156 14.441406 C 37.304688 14.179688 36.960938 13.949219 36.867188 13.648438 C 36.679688 13.035156 36.570312 12.386719 36.539062 11.746094 C 36.484375 10.671875 36.550781 9.589844 36.496094 8.519531 C 36.472656 8.054688 36.269531 7.601562 36.144531 7.144531 C 36.007812 7.144531 35.871094 7.144531 35.730469 7.144531 C 35.597656 7.707031 35.351562 8.273438 35.347656 8.839844 C 35.34375 10.449219 35.398438 12.066406 35.5 13.675781 C 35.597656 15.214844 35.855469 16.660156 37.347656 17.640625 C 38.308594 18.269531 38.3125 19.109375 37.539062 19.953125 C 36.660156 20.90625 36.390625 22 36.628906 23.378906 M 5.679688 13.011719 C 5.425781 14.871094 6.03125 15.429688 7.875 15.027344 C 8.042969 14.992188 8.238281 14.90625 8.375 14.960938 C 8.609375 15.054688 8.941406 15.207031 8.988281 15.398438 C 9.042969 15.609375 8.898438 15.964844 8.71875 16.117188 C 8.523438 16.285156 8.191406 16.308594 7.914062 16.359375 C 7.523438 16.429688 7.089844 16.386719 6.738281 16.539062 C 6.34375 16.714844 6.015625 17.050781 5.660156 17.316406 C 6.054688 17.511719 6.433594 17.804688 6.847656 17.875 C 7.3125 17.953125 7.816406 17.78125 8.292969 17.8125 C 8.554688 17.828125 8.804688 18.035156 9.058594 18.15625 C 8.863281 18.359375 8.703125 18.667969 8.464844 18.75 C 7.929688 18.9375 7.351562 18.996094 6.800781 19.144531 C 6.316406 19.273438 5.84375 19.484375 5.933594 20.109375 C 6.023438 20.75 6.554688 20.675781 7.003906 20.648438 C 8.839844 20.539062 10.671875 20.394531 12.507812 20.296875 C 13.140625 20.261719 13.183594 19.90625 12.945312 19.511719 C 12.792969 19.253906 12.460938 19.039062 12.160156 18.9375 C 11.652344 18.769531 11.09375 18.746094 10.578125 18.585938 C 10.367188 18.523438 10.21875 18.261719 10.042969 18.089844 C 10.246094 17.941406 10.433594 17.699219 10.652344 17.671875 C 11.097656 17.617188 11.582031 17.757812 12.011719 17.660156 C 12.363281 17.578125 12.660156 17.265625 12.980469 17.054688 C 12.699219 16.785156 12.464844 16.375 12.132812 16.277344 C 11.628906 16.125 11.0625 16.195312 10.519531 16.15625 C 9.933594 16.113281 9.863281 15.808594 10.128906 15.351562 C 10.535156 14.652344 11.203125 14.851562 11.816406 14.871094 C 12.273438 14.882812 12.777344 14.976562 12.835938 14.296875 C 12.894531 13.609375 12.507812 13.171875 11.828125 13.148438 C 11.539062 13.140625 11.253906 13.121094 10.96875 13.144531 C 10.398438 13.199219 10.234375 12.789062 10.285156 12.402344 C 10.324219 12.121094 10.609375 11.8125 10.871094 11.644531 C 11.085938 11.503906 11.4375 11.597656 11.699219 11.507812 C 11.917969 11.429688 12.242188 11.238281 12.253906 11.078125 C 12.269531 10.859375 12.09375 10.535156 11.898438 10.40625 C 11.476562 10.128906 11.222656 9.777344 11.511719 9.363281 C 11.761719 9.011719 12.167969 8.726562 12.566406 8.542969 C 12.820312 8.425781 13.195312 8.605469 13.492188 8.542969 C 13.753906 8.484375 13.976562 8.273438 14.21875 8.128906 C 14.039062 7.90625 13.902344 7.585938 13.667969 7.480469 C 13.214844 7.277344 12.707031 7.199219 12.210938 7.066406 C 12.234375 6.785156 12.316406 6.546875 12.261719 6.34375 C 12.1875 6.070312 12.007812 5.824219 11.871094 5.566406 C 11.679688 5.777344 11.457031 5.96875 11.3125 6.203125 C 11.1875 6.40625 11.171875 6.851562 11.070312 6.863281 C 10.367188 6.949219 9.648438 7.011719 8.945312 6.941406 C 8.722656 6.921875 8.546875 6.476562 8.335938 6.238281 C 8.191406 6.078125 8.023438 5.9375 7.808594 5.730469 C 7.699219 5.976562 7.601562 6.082031 7.613281 6.175781 C 7.710938 7.105469 7.144531 7.328125 6.378906 7.355469 C 6.238281 7.359375 6.089844 7.371094 5.953125 7.40625 C 5.457031 7.539062 4.859375 7.636719 4.96875 8.335938 C 5.074219 8.988281 5.648438 8.902344 6.132812 8.894531 C 6.246094 8.890625 6.363281 8.878906 6.476562 8.863281 C 7.699219 8.695312 7.707031 8.699219 7.851562 9.988281 C 7.574219 10.164062 7.246094 10.304688 7.011719 10.539062 C 6.8125 10.738281 6.71875 11.042969 6.578125 11.296875 C 6.84375 11.410156 7.105469 11.53125 7.375 11.625 C 7.839844 11.785156 8.40625 11.8125 8.753906 12.105469 C 9.257812 12.519531 9.023438 13.035156 8.371094 13.136719 C 7.097656 13.332031 7.097656 13.332031 6.023438 12.292969 C 5.917969 12.507812 5.824219 12.699219 5.679688 13.011719 M 5.679688 27.792969 C 6.214844 28.71875 6.503906 28.8125 7.566406 28.582031 C 7.84375 28.523438 8.421875 28.660156 8.445312 28.78125 C 8.601562 29.640625 8.707031 30.515625 8.71875 31.386719 C 8.730469 32.0625 8.214844 32.390625 7.589844 32.441406 C 6.988281 32.488281 6.523438 32.230469 6.40625 31.585938 C 6.328125 31.171875 6.332031 30.742188 6.253906 30.324219 C 6.226562 30.1875 6.070312 30 5.949219 29.980469 C 5.835938 29.960938 5.640625 30.097656 5.558594 30.21875 C 4.644531 31.605469 5.382812 33.414062 6.996094 33.910156 C 7.527344 34.074219 7.996094 34.433594 8.492188 34.707031 C 8.089844 35.058594 7.667969 35.390625 7.292969 35.769531 C 7.046875 36.015625 6.734375 36.3125 6.707031 36.609375 C 6.691406 36.789062 7.132812 37.132812 7.417969 37.195312 C 8.324219 37.40625 8.601562 37.96875 8.5625 38.808594 C 8.527344 39.457031 8.515625 40.109375 8.523438 40.761719 C 8.53125 42.089844 8.546875 43.421875 8.59375 44.75 C 8.605469 45.042969 8.765625 45.332031 8.855469 45.621094 C 8.9375 45.617188 9.019531 45.613281 9.101562 45.609375 C 9.1875 45.296875 9.34375 44.992188 9.355469 44.679688 C 9.449219 42.730469 9.527344 40.78125 9.566406 38.832031 C 9.585938 37.863281 9.847656 37.5625 10.730469 37.375 C 11.109375 37.296875 11.625 36.988281 11.71875 36.679688 C 11.796875 36.414062 11.40625 35.960938 11.136719 35.660156 C 10.988281 35.496094 10.65625 35.511719 10.433594 35.394531 C 10.15625 35.242188 9.910156 35.035156 9.652344 34.851562 C 9.875 34.589844 10.058594 34.265625 10.335938 34.078125 C 10.660156 33.859375 11.105469 33.820312 11.425781 33.597656 C 11.691406 33.414062 11.851562 33.082031 12.0625 32.816406 C 11.777344 32.640625 11.496094 32.457031 11.203125 32.292969 C 11.140625 32.257812 11.035156 32.285156 10.949219 32.289062 C 10.292969 32.316406 10.066406 32.003906 10.03125 31.363281 C 9.984375 30.460938 9.902344 29.546875 9.667969 28.679688 C 9.542969 28.21875 9.15625 27.667969 8.738281 27.484375 C 8 27.15625 7.15625 27.058594 6.347656 26.910156 C 5.757812 26.800781 5.46875 27.054688 5.679688 27.792969 M 21.246094 35.644531 C 21.921875 33.441406 21.464844 31.222656 21.347656 29.007812 C 21.339844 28.871094 21.164062 28.628906 21.105469 28.636719 C 20.941406 28.667969 20.734375 28.773438 20.660156 28.910156 C 20.558594 29.097656 20.550781 29.34375 20.53125 29.566406 C 20.425781 30.726562 20.046875 31.132812 18.910156 31.242188 C 18.398438 31.289062 17.882812 31.335938 17.371094 31.304688 C 16.054688 31.222656 15.972656 31.09375 15.78125 29.8125 C 15.71875 29.367188 15.96875 28.660156 15.222656 28.613281 C 15.09375 28.605469 14.796875 29.429688 14.78125 29.878906 C 14.703125 31.824219 14.683594 33.769531 14.679688 35.71875 C 14.679688 37.128906 14.722656 38.542969 14.78125 39.953125 C 14.792969 40.289062 14.941406 40.617188 15.027344 40.949219 C 15.121094 40.949219 15.214844 40.949219 15.308594 40.953125 C 15.378906 40.652344 15.511719 40.351562 15.511719 40.050781 C 15.507812 38.300781 15.496094 36.550781 15.4375 34.800781 C 15.414062 34.152344 15.542969 33.636719 16.222656 33.492188 C 17.15625 33.289062 18.105469 33.066406 19.054688 33.03125 C 20.277344 32.992188 20.476562 33.28125 20.511719 34.472656 C 20.535156 35.3125 20.585938 36.148438 20.621094 36.984375 C 20.71875 36.984375 20.8125 36.984375 20.910156 36.988281 C 21.011719 36.585938 21.113281 36.183594 21.246094 35.644531 M 43.195312 35.277344 C 43.023438 31.554688 42.898438 27.832031 42.449219 24.136719 C 42.292969 24.144531 42.136719 24.148438 41.984375 24.15625 C 41.828125 31.011719 41.652344 37.863281 42.472656 44.722656 C 42.765625 44.101562 42.988281 43.46875 43.011719 42.828125 C 43.109375 40.367188 43.140625 37.90625 43.195312 35.277344 M 32.707031 40.4375 C 32.804688 41.699219 32.644531 43.003906 33.320312 44.207031 C 33.492188 44.027344 33.605469 43.847656 33.625 43.65625 C 33.691406 42.980469 33.78125 42.300781 33.765625 41.625 C 33.664062 36.28125 33.539062 30.9375 33.410156 25.59375 C 33.402344 25.292969 33.34375 24.960938 33.195312 24.703125 C 33.0625 24.46875 32.78125 24.320312 32.566406 24.132812 C 32.453125 24.371094 32.292969 24.597656 32.242188 24.847656 C 32.1875 25.117188 32.21875 25.410156 32.230469 25.691406 C 32.339844 28.09375 32.484375 30.492188 32.5625 32.894531 C 32.640625 35.355469 32.652344 37.816406 32.707031 40.4375 M 35.132812 29.464844 C 35.132812 34.484375 35.132812 39.507812 35.132812 44.527344 C 35.214844 44.53125 35.292969 44.539062 35.375 44.542969 C 35.414062 44.449219 35.460938 44.359375 35.488281 44.265625 C 36.097656 42.007812 36.195312 39.703125 36.191406 37.378906 C 36.191406 33.621094 36.285156 29.863281 36.3125 26.105469 C 36.320312 25.566406 36.191406 25.027344 36.125 24.488281 C 36 24.488281 35.875 24.484375 35.75 24.480469 C 35.117188 26.015625 35.320312 27.691406 35.132812 29.464844 M 27.089844 29.476562 C 27.074219 28.015625 27.257812 26.527344 26.410156 25.140625 C 26.140625 25.757812 25.941406 26.386719 25.917969 27.019531 C 25.777344 30.78125 25.648438 34.539062 25.578125 38.300781 C 25.546875 40.019531 25.652344 41.742188 25.730469 43.464844 C 25.746094 43.84375 25.910156 44.214844 26.003906 44.589844 C 26.082031 44.578125 26.160156 44.566406 26.238281 44.554688 C 26.410156 43.054688 26.660156 41.558594 26.730469 40.054688 C 26.894531 36.585938 26.972656 33.113281 27.089844 29.476562 M 21.46875 41.441406 C 21.554688 40.230469 21.71875 39.003906 20.945312 37.703125 C 20.828125 38.125 20.757812 38.308594 20.726562 38.503906 C 20.53125 39.757812 20.402344 41.03125 20.128906 42.269531 C 20.035156 42.691406 19.664062 43.160156 19.285156 43.390625 C 18.535156 43.851562 17.707031 43.722656 16.898438 43.40625 C 16.035156 43.0625 15.226562 42.703125 15.304688 41.402344 C 14.460938 42.6875 14.996094 44.691406 16.222656 45.128906 C 16.976562 45.398438 17.832031 45.464844 18.644531 45.5 C 19.589844 45.542969 20.304688 45.039062 20.644531 44.175781 C 20.972656 43.335938 21.175781 42.453125 21.46875 41.441406 M 5.078125 22.4375 C 4.652344 23.171875 4.796875 23.507812 5.589844 23.515625 C 5.984375 23.519531 6.382812 23.449219 6.773438 23.386719 C 8.535156 23.089844 10.289062 22.695312 12.097656 23.128906 C 12.558594 23.238281 13.066406 23.210938 13.546875 23.183594 C 14.132812 23.152344 14.097656 22.785156 13.851562 22.421875 C 13.75 22.273438 13.539062 22.164062 13.355469 22.109375 C 12.082031 21.730469 10.804688 21.359375 9.523438 21.011719 C 9.382812 20.972656 9.167969 21.039062 9.046875 21.132812 C 7.917969 22.027344 6.5 22.019531 5.078125 22.4375 M 38.453125 34.660156 C 38.539062 38.519531 37.910156 42.398438 38.707031 46.253906 C 38.929688 46.105469 39.070312 45.949219 39.074219 45.785156 C 39.1875 41.632812 39.292969 37.484375 39.375 33.335938 C 39.382812 33.019531 39.207031 32.703125 39.113281 32.386719 C 39.007812 32.390625 38.898438 32.394531 38.792969 32.402344 C 38.683594 33.101562 38.578125 33.800781 38.453125 34.660156 M 16.675781 12.863281 C 16.316406 12.414062 16.03125 12.59375 15.851562 13.003906 C 15.707031 13.335938 15.601562 13.699219 15.554688 14.058594 C 15.199219 16.800781 14.859375 19.546875 14.527344 22.292969 C 14.5 22.523438 14.554688 22.761719 14.570312 22.996094 C 14.644531 23.03125 14.71875 23.0625 14.789062 23.097656 C 15 22.871094 15.304688 22.679688 15.398438 22.410156 C 15.636719 21.726562 15.855469 21.015625 15.941406 20.296875 C 16.238281 17.867188 16.46875 15.425781 16.675781 12.863281 M 15.996094 5.875 C 15.414062 6.105469 15.171875 6.59375 15.4375 7.089844 C 15.546875 7.300781 16.152344 7.320312 16.527344 7.3125 C 17.949219 7.285156 19.367188 7.230469 20.785156 7.140625 C 21.304688 7.105469 22.230469 7.011719 22.265625 6.828125 C 22.402344 6.027344 21.601562 5.757812 21.039062 5.738281 C 19.402344 5.679688 17.761719 5.789062 15.996094 5.875 M 13.199219 44.105469 C 13.234375 43.601562 13.308594 43.097656 13.300781 42.59375 C 13.265625 40.992188 13.214844 39.386719 13.128906 37.789062 C 13.117188 37.566406 12.855469 37.359375 12.710938 37.148438 C 12.515625 37.292969 12.289062 37.410156 12.136719 37.589844 C 12.023438 37.730469 11.945312 37.953125 11.949219 38.136719 C 12 39.796875 12.046875 41.453125 12.148438 43.109375 C 12.191406 43.839844 12.355469 44.5625 12.464844 45.289062 C 12.566406 45.304688 12.667969 45.320312 12.769531 45.339844 C 12.902344 44.972656 13.03125 44.605469 13.199219 44.105469 M 6.394531 38.957031 C 6.425781 38.820312 6.515625 38.660156 6.476562 38.546875 C 6.363281 38.21875 6.199219 37.910156 6.054688 37.59375 C 5.820312 37.824219 5.492188 38.011719 5.371094 38.289062 C 5.191406 38.691406 5.09375 39.160156 5.082031 39.601562 C 5.050781 41.152344 5.070312 42.703125 5.078125 44.253906 C 5.078125 44.566406 5.125 44.875 5.15625 45.292969 C 5.964844 44.371094 6.371094 42.957031 6.324219 41.710938 C 6.292969 40.84375 6.335938 39.972656 6.394531 38.957031 M 12.742188 31.714844 C 13.234375 28.863281 13.214844 28.605469 12.28125 28.089844 C 12.28125 29.523438 12.28125 30.855469 12.28125 32.367188 C 12.46875 32.128906 12.582031 31.984375 12.742188 31.714844 M 17.28125 21.859375 C 17.101562 22.386719 16.898438 22.910156 16.757812 23.449219 C 16.714844 23.601562 16.816406 23.925781 16.90625 23.945312 C 17.089844 23.988281 17.445312 23.929688 17.488281 23.820312 C 17.703125 23.269531 17.863281 22.691406 17.964844 22.109375 C 17.980469 22.03125 17.566406 21.875 17.28125 21.859375 M 12.851562 12.128906 C 12.898438 12.410156 12.894531 12.710938 13.007812 12.960938 C 13.097656 13.164062 13.324219 13.304688 13.488281 13.476562 C 13.613281 13.285156 13.8125 13.101562 13.84375 12.898438 C 13.890625 12.597656 13.882812 12.257812 13.777344 11.976562 C 13.683594 11.714844 13.433594 11.511719 13.25 11.285156 C 13.113281 11.527344 12.972656 11.765625 12.851562 12.128906 Z M 12.851562 12.128906" stroke-linecap="round"/>
</g>
<g transform="matrix(17.8253 0 0 17.8253 599.5507 509.6436)" id="surface1">
<path style="stroke: none; stroke-width: 1; stroke-dasharray: none; stroke-linecap: butt; stroke-dashoffset: 0; stroke-linejoin: miter; stroke-miterlimit: 4; is-custom-font: none; font-file-url: none; fill: rgb(252,247,247); fill-rule: nonzero; opacity: 1;" transform=" translate(-29.5848, -26.041)" d="M 28.90625 8.933594 C 28.992188 8.035156 29.015625 7.210938 29.160156 6.40625 C 29.222656 6.046875 29.523438 5.726562 29.714844 5.390625 C 29.847656 5.417969 29.980469 5.445312 30.109375 5.476562 C 30.1875 6.128906 30.320312 6.777344 30.332031 7.433594 C 30.363281 9.414062 30.332031 11.394531 30.355469 13.375 C 30.363281 13.789062 30.449219 14.21875 30.597656 14.605469 C 30.671875 14.789062 30.988281 15 31.179688 14.988281 C 31.363281 14.976562 31.632812 14.710938 31.675781 14.515625 C 31.839844 13.78125 32 13.027344 32.03125 12.277344 C 32.089844 10.921875 32.046875 9.5625 32.070312 8.203125 C 32.074219 7.898438 32.144531 7.585938 32.238281 7.292969 C 32.28125 7.164062 32.488281 6.964844 32.5625 6.988281 C 32.71875 7.035156 32.867188 7.1875 32.953125 7.332031 C 33.035156 7.472656 33.070312 7.660156 33.066406 7.824219 C 33.019531 10.058594 33.003906 12.292969 32.875 14.523438 C 32.839844 15.109375 32.480469 15.691406 32.203125 16.242188 C 31.914062 16.824219 31.5625 17.375 31.203125 17.917969 C 30.546875 18.90625 30.582031 19.773438 31.292969 20.792969 C 31.742188 21.429688 31.863281 22.34375 31.972656 23.15625 C 32.046875 23.710938 31.765625 24.160156 31.132812 24.464844 C 30.75 24.648438 30.386719 25.285156 30.367188 25.734375 C 30.28125 27.742188 30.34375 29.753906 30.308594 31.761719 C 30.273438 33.738281 30.167969 35.714844 30.121094 37.695312 C 30.097656 38.679688 30.15625 39.664062 30.140625 40.648438 C 30.109375 42.421875 30.0625 44.199219 29.992188 45.972656 C 29.980469 46.214844 29.816406 46.453125 29.71875 46.691406 C 29.632812 46.691406 29.546875 46.6875 29.457031 46.683594 C 29.355469 46.179688 29.160156 45.679688 29.164062 45.175781 C 29.167969 43.199219 29.265625 41.222656 29.269531 39.246094 C 29.277344 36.730469 29.246094 34.21875 29.195312 31.707031 C 29.15625 29.867188 29.0625 28.03125 28.988281 26.195312 C 28.953125 25.351562 28.730469 24.683594 27.765625 24.386719 C 27.46875 24.292969 27.121094 23.667969 27.164062 23.328125 C 27.292969 22.226562 27.375 21.066406 28.503906 20.355469 C 28.675781 20.242188 28.742188 19.664062 28.613281 19.433594 C 28.292969 18.84375 27.835938 18.320312 27.425781 17.777344 C 26.730469 16.855469 26.226562 15.867188 26.207031 14.679688 C 26.167969 12.644531 26.078125 10.609375 26.109375 8.574219 C 26.117188 8.09375 26.527344 7.621094 26.753906 7.144531 C 26.9375 7.574219 27.269531 8 27.28125 8.433594 C 27.324219 10.179688 27.257812 11.929688 27.261719 13.679688 C 27.265625 14.09375 27.34375 14.527344 27.492188 14.910156 C 27.5625 15.089844 27.882812 15.285156 28.078125 15.273438 C 28.269531 15.261719 28.535156 15.027344 28.605469 14.835938 C 28.734375 14.472656 28.785156 14.066406 28.796875 13.679688 C 28.84375 12.121094 28.863281 10.566406 28.90625 8.933594 Z M 28.90625 8.933594" stroke-linecap="round"/>
</g>
<g transform="matrix(17.8253 0 0 17.8253 766.5922 370.1767)" id="surface1">
<path style="stroke: none; stroke-width: 1; stroke-dasharray: none; stroke-linecap: butt; stroke-dashoffset: 0; stroke-linejoin: miter; stroke-miterlimit: 4; is-custom-font: none; font-file-url: none; fill: rgb(252,249,249); fill-rule: nonzero; opacity: 1;" transform=" translate(-38.9558, -18.2169)" d="M 36.605469 23.3125 C 36.390625 22 36.660156 20.90625 37.539062 19.953125 C 38.3125 19.109375 38.308594 18.269531 37.347656 17.640625 C 35.855469 16.660156 35.597656 15.214844 35.5 13.675781 C 35.398438 12.066406 35.34375 10.449219 35.347656 8.839844 C 35.351562 8.273438 35.597656 7.707031 35.730469 7.144531 C 35.871094 7.144531 36.007812 7.144531 36.144531 7.144531 C 36.269531 7.601562 36.472656 8.054688 36.496094 8.519531 C 36.550781 9.589844 36.484375 10.671875 36.539062 11.746094 C 36.570312 12.386719 36.679688 13.035156 36.867188 13.648438 C 36.960938 13.949219 37.304688 14.179688 37.535156 14.441406 C 37.757812 14.140625 38.097656 13.871094 38.1875 13.535156 C 38.339844 12.96875 38.375 12.363281 38.386719 11.773438 C 38.417969 10.1875 38.394531 8.597656 38.417969 7.011719 C 38.429688 6.042969 38.734375 5.777344 39.933594 5.816406 C 39.832031 6.476562 39.8125 7.136719 39.625 7.746094 C 39.074219 9.527344 39.226562 11.328125 39.363281 13.128906 C 39.40625 13.675781 39.703125 14.09375 40.34375 14.109375 C 41.054688 14.125 41.195312 13.609375 41.226562 13.089844 C 41.332031 11.449219 41.363281 9.804688 41.5 8.171875 C 41.53125 7.78125 41.859375 7.417969 42.050781 7.042969 C 42.140625 7.078125 42.230469 7.113281 42.320312 7.148438 C 42.378906 7.359375 42.480469 7.574219 42.488281 7.789062 C 42.550781 10.191406 42.765625 12.605469 42.003906 14.945312 C 41.84375 15.433594 41.511719 15.871094 41.230469 16.316406 C 40.78125 17.027344 40.292969 17.71875 39.851562 18.4375 C 39.5 19.007812 39.632812 19.464844 40.1875 19.886719 C 41.226562 20.675781 41.511719 21.8125 41.519531 23.046875 C 41.523438 23.648438 41.285156 24.089844 40.648438 24.226562 C 39.851562 24.398438 39.546875 24.875 39.550781 25.6875 C 39.558594 26.902344 39.472656 28.117188 39.398438 29.332031 C 39.371094 29.757812 39.265625 30.175781 39.195312 30.601562 C 39.085938 30.609375 38.976562 30.613281 38.863281 30.621094 C 38.769531 30.273438 38.605469 29.929688 38.585938 29.578125 C 38.5 28.253906 38.441406 26.921875 38.414062 25.59375 C 38.398438 24.949219 38.203125 24.480469 37.511719 24.367188 C 36.929688 24.273438 36.703125 23.902344 36.605469 23.3125 Z M 36.605469 23.3125" stroke-linecap="round"/>
</g>
<g transform="matrix(17.8253 0 0 17.8253 243.0873 279.2538)" id="surface1">
<path style="stroke: none; stroke-width: 1; stroke-dasharray: none; stroke-linecap: butt; stroke-dashoffset: 0; stroke-linejoin: miter; stroke-miterlimit: 4; is-custom-font: none; font-file-url: none; fill: rgb(249,239,242); fill-rule: nonzero; opacity: 1;" transform=" translate(-9.5872, -13.1161)" d="M 5.707031 12.949219 C 5.824219 12.699219 5.917969 12.507812 6.023438 12.292969 C 7.097656 13.332031 7.097656 13.332031 8.371094 13.136719 C 9.023438 13.035156 9.257812 12.519531 8.753906 12.105469 C 8.40625 11.8125 7.839844 11.785156 7.375 11.625 C 7.105469 11.53125 6.84375 11.410156 6.578125 11.296875 C 6.71875 11.042969 6.8125 10.738281 7.011719 10.539062 C 7.246094 10.304688 7.574219 10.164062 7.851562 9.988281 C 7.707031 8.699219 7.699219 8.695312 6.476562 8.863281 C 6.363281 8.878906 6.246094 8.890625 6.132812 8.894531 C 5.648438 8.902344 5.074219 8.988281 4.96875 8.335938 C 4.859375 7.636719 5.457031 7.539062 5.953125 7.40625 C 6.089844 7.371094 6.238281 7.359375 6.378906 7.355469 C 7.144531 7.328125 7.710938 7.105469 7.613281 6.175781 C 7.601562 6.082031 7.699219 5.976562 7.808594 5.730469 C 8.023438 5.9375 8.191406 6.078125 8.335938 6.238281 C 8.546875 6.476562 8.722656 6.921875 8.945312 6.941406 C 9.648438 7.011719 10.367188 6.949219 11.070312 6.863281 C 11.171875 6.851562 11.1875 6.40625 11.3125 6.203125 C 11.457031 5.96875 11.679688 5.777344 11.871094 5.566406 C 12.007812 5.824219 12.1875 6.070312 12.261719 6.34375 C 12.316406 6.546875 12.234375 6.785156 12.210938 7.066406 C 12.707031 7.199219 13.214844 7.277344 13.667969 7.480469 C 13.902344 7.585938 14.039062 7.90625 14.21875 8.128906 C 13.976562 8.273438 13.753906 8.484375 13.492188 8.542969 C 13.195312 8.605469 12.820312 8.425781 12.566406 8.542969 C 12.167969 8.726562 11.761719 9.011719 11.511719 9.363281 C 11.222656 9.777344 11.476562 10.128906 11.898438 10.40625 C 12.09375 10.535156 12.269531 10.859375 12.253906 11.078125 C 12.242188 11.238281 11.917969 11.429688 11.699219 11.507812 C 11.4375 11.597656 11.085938 11.503906 10.871094 11.644531 C 10.609375 11.8125 10.324219 12.121094 10.285156 12.402344 C 10.234375 12.789062 10.398438 13.199219 10.96875 13.144531 C 11.253906 13.121094 11.539062 13.140625 11.828125 13.148438 C 12.507812 13.171875 12.894531 13.609375 12.835938 14.296875 C 12.777344 14.976562 12.273438 14.882812 11.816406 14.871094 C 11.203125 14.851562 10.535156 14.652344 10.128906 15.351562 C 9.863281 15.808594 9.933594 16.113281 10.519531 16.15625 C 11.0625 16.195312 11.628906 16.125 12.132812 16.277344 C 12.464844 16.375 12.699219 16.785156 12.980469 17.054688 C 12.660156 17.265625 12.363281 17.578125 12.011719 17.660156 C 11.582031 17.757812 11.097656 17.617188 10.652344 17.671875 C 10.433594 17.699219 10.246094 17.941406 10.042969 18.089844 C 10.21875 18.261719 10.367188 18.523438 10.578125 18.585938 C 11.09375 18.746094 11.652344 18.769531 12.160156 18.9375 C 12.460938 19.039062 12.792969 19.253906 12.945312 19.511719 C 13.183594 19.90625 13.140625 20.261719 12.507812 20.296875 C 10.671875 20.394531 8.839844 20.539062 7.003906 20.648438 C 6.554688 20.675781 6.023438 20.75 5.933594 20.109375 C 5.84375 19.484375 6.316406 19.273438 6.800781 19.144531 C 7.351562 18.996094 7.929688 18.9375 8.464844 18.75 C 8.703125 18.667969 8.863281 18.359375 9.058594 18.15625 C 8.804688 18.035156 8.554688 17.828125 8.292969 17.8125 C 7.816406 17.78125 7.3125 17.953125 6.847656 17.875 C 6.433594 17.804688 6.054688 17.511719 5.660156 17.316406 C 6.015625 17.050781 6.34375 16.714844 6.738281 16.539062 C 7.089844 16.386719 7.523438 16.429688 7.914062 16.359375 C 8.191406 16.308594 8.523438 16.285156 8.71875 16.117188 C 8.898438 15.964844 9.042969 15.609375 8.988281 15.398438 C 8.941406 15.207031 8.609375 15.054688 8.375 14.960938 C 8.238281 14.90625 8.042969 14.992188 7.875 15.027344 C 6.03125 15.429688 5.425781 14.871094 5.707031 12.949219 M 8.6875 9.441406 C 8.835938 9.605469 8.96875 9.886719 9.136719 9.910156 C 9.636719 9.972656 10.144531 9.929688 10.695312 9.929688 C 10.6875 9.355469 11.066406 8.792969 10.339844 8.535156 C 9.640625 8.285156 9.042969 8.582031 8.6875 9.441406 Z M 8.6875 9.441406" stroke-linecap="round"/>
</g>
<g transform="matrix(17.8253 0 0 17.8253 225.7 691.6822)" id="surface1">
<path style="stroke: none; stroke-width: 1; stroke-dasharray: none; stroke-linecap: butt; stroke-dashoffset: 0; stroke-linejoin: miter; stroke-miterlimit: 4; is-custom-font: none; font-file-url: none; fill: rgb(249,239,242); fill-rule: nonzero; opacity: 1;" transform=" translate(-8.6118, -36.2534)" d="M 5.65625 27.734375 C 5.46875 27.054688 5.757812 26.800781 6.347656 26.910156 C 7.15625 27.058594 8 27.15625 8.738281 27.484375 C 9.15625 27.667969 9.542969 28.21875 9.667969 28.679688 C 9.902344 29.546875 9.984375 30.460938 10.03125 31.363281 C 10.066406 32.003906 10.292969 32.316406 10.949219 32.289062 C 11.035156 32.285156 11.140625 32.257812 11.203125 32.292969 C 11.496094 32.457031 11.777344 32.640625 12.0625 32.816406 C 11.851562 33.082031 11.691406 33.414062 11.425781 33.597656 C 11.105469 33.820312 10.660156 33.859375 10.335938 34.078125 C 10.058594 34.265625 9.875 34.589844 9.652344 34.851562 C 9.910156 35.035156 10.15625 35.242188 10.433594 35.394531 C 10.65625 35.511719 10.988281 35.496094 11.136719 35.660156 C 11.40625 35.960938 11.796875 36.414062 11.71875 36.679688 C 11.625 36.988281 11.109375 37.296875 10.730469 37.375 C 9.847656 37.5625 9.585938 37.863281 9.566406 38.832031 C 9.527344 40.78125 9.449219 42.730469 9.355469 44.679688 C 9.34375 44.992188 9.1875 45.296875 9.101562 45.609375 C 9.019531 45.613281 8.9375 45.617188 8.855469 45.621094 C 8.765625 45.332031 8.605469 45.042969 8.59375 44.75 C 8.546875 43.421875 8.53125 42.089844 8.523438 40.761719 C 8.515625 40.109375 8.527344 39.457031 8.5625 38.808594 C 8.601562 37.96875 8.324219 37.40625 7.417969 37.195312 C 7.132812 37.132812 6.691406 36.789062 6.707031 36.609375 C 6.734375 36.3125 7.046875 36.015625 7.292969 35.769531 C 7.667969 35.390625 8.089844 35.058594 8.492188 34.707031 C 7.996094 34.433594 7.527344 34.074219 6.996094 33.910156 C 5.382812 33.414062 4.644531 31.605469 5.558594 30.21875 C 5.640625 30.097656 5.835938 29.960938 5.949219 29.980469 C 6.070312 30 6.226562 30.1875 6.253906 30.324219 C 6.332031 30.742188 6.328125 31.171875 6.40625 31.585938 C 6.523438 32.230469 6.988281 32.488281 7.589844 32.441406 C 8.214844 32.390625 8.730469 32.0625 8.71875 31.386719 C 8.707031 30.515625 8.601562 29.640625 8.445312 28.78125 C 8.421875 28.660156 7.84375 28.523438 7.566406 28.582031 C 6.503906 28.8125 6.214844 28.71875 5.65625 27.734375 Z M 5.65625 27.734375" stroke-linecap="round"/>
</g>
<g transform="matrix(17.8253 0 0 17.8253 395.5793 665.4755)" id="surface1">
<path style="stroke: none; stroke-width: 1; stroke-dasharray: none; stroke-linecap: butt; stroke-dashoffset: 0; stroke-linejoin: miter; stroke-miterlimit: 4; is-custom-font: none; font-file-url: none; fill: rgb(249,237,239); fill-rule: nonzero; opacity: 1;" transform=" translate(-18.142, -34.7832)" d="M 21.230469 35.714844 C 21.113281 36.183594 21.011719 36.585938 20.910156 36.988281 C 20.8125 36.984375 20.71875 36.984375 20.621094 36.984375 C 20.585938 36.148438 20.535156 35.3125 20.511719 34.472656 C 20.476562 33.28125 20.277344 32.992188 19.054688 33.03125 C 18.105469 33.066406 17.15625 33.289062 16.222656 33.492188 C 15.542969 33.636719 15.414062 34.152344 15.4375 34.800781 C 15.496094 36.550781 15.507812 38.300781 15.511719 40.050781 C 15.511719 40.351562 15.378906 40.652344 15.308594 40.953125 C 15.214844 40.949219 15.121094 40.949219 15.027344 40.949219 C 14.941406 40.617188 14.792969 40.289062 14.78125 39.953125 C 14.722656 38.542969 14.679688 37.128906 14.679688 35.71875 C 14.683594 33.769531 14.703125 31.824219 14.78125 29.878906 C 14.796875 29.429688 15.09375 28.605469 15.222656 28.613281 C 15.96875 28.660156 15.71875 29.367188 15.78125 29.8125 C 15.972656 31.09375 16.054688 31.222656 17.371094 31.304688 C 17.882812 31.335938 18.398438 31.289062 18.910156 31.242188 C 20.046875 31.132812 20.425781 30.726562 20.53125 29.566406 C 20.550781 29.34375 20.558594 29.097656 20.660156 28.910156 C 20.734375 28.773438 20.941406 28.667969 21.105469 28.636719 C 21.164062 28.628906 21.339844 28.871094 21.347656 29.007812 C 21.464844 31.222656 21.921875 33.441406 21.230469 35.714844 Z M 21.230469 35.714844" stroke-linecap="round"/>
</g>
<g transform="matrix(17.8253 0 0 17.8253 396.8087 305.3099)" id="surface1">
<path style="stroke: none; stroke-width: 1; stroke-dasharray: none; stroke-linecap: butt; stroke-dashoffset: 0; stroke-linejoin: miter; stroke-miterlimit: 4; is-custom-font: none; font-file-url: none; fill: rgb(249,239,242); fill-rule: nonzero; opacity: 1;" transform=" translate(-18.211, -14.5779)" d="M 21.578125 12.402344 C 21.519531 12.613281 21.460938 12.824219 21.347656 13.0625 C 21.292969 13.09375 21.3125 13.082031 21.3125 13.082031 C 21.207031 13 21.113281 12.890625 20.992188 12.84375 C 20.667969 12.71875 20.269531 12.460938 20.015625 12.558594 C 19.769531 12.652344 19.558594 13.105469 19.523438 13.421875 C 19.363281 14.933594 19.328125 16.464844 19.121094 17.972656 C 18.992188 18.914062 18.65625 19.832031 18.371094 20.75 C 18.308594 20.949219 18.070312 21.097656 17.914062 21.273438 C 17.800781 21.039062 17.582031 20.796875 17.59375 20.566406 C 17.636719 19.722656 17.738281 18.882812 17.851562 18.042969 C 18.023438 16.730469 18.253906 15.425781 18.40625 14.109375 C 18.550781 12.890625 18.320312 12.625 17.132812 12.453125 C 16.515625 12.363281 16.429688 11.917969 16.683594 11.527344 C 16.910156 11.183594 17.371094 10.996094 17.707031 10.71875 C 17.964844 10.511719 18.191406 10.269531 18.433594 10.042969 C 18.109375 9.929688 17.792969 9.761719 17.460938 9.714844 C 16.820312 9.621094 16.164062 9.632812 15.527344 9.527344 C 14.929688 9.433594 14.785156 8.988281 14.863281 8.441406 C 14.929688 7.976562 15.191406 7.816406 15.640625 7.90625 C 16.503906 8.078125 17.394531 8.160156 18.214844 8.441406 C 18.632812 8.589844 19.054688 9.035156 19.238281 9.449219 C 19.535156 10.113281 19.863281 10.558594 20.601562 10.824219 C 21.019531 10.972656 21.277344 11.5625 21.566406 12.042969 C 21.542969 12.222656 21.5625 12.3125 21.578125 12.402344 Z M 21.578125 12.402344" stroke-linecap="round"/>
</g>
<g transform="matrix(17.8253 0 0 17.8253 830.1929 659.1743)" id="surface1">
<path style="stroke: none; stroke-width: 1; stroke-dasharray: none; stroke-linecap: butt; stroke-dashoffset: 0; stroke-linejoin: miter; stroke-miterlimit: 4; is-custom-font: none; font-file-url: none; fill: rgb(252,244,244); fill-rule: nonzero; opacity: 1;" transform=" translate(-42.5238, -34.4297)" d="M 43.195312 35.359375 C 43.140625 37.90625 43.109375 40.367188 43.011719 42.828125 C 42.988281 43.46875 42.765625 44.101562 42.472656 44.722656 C 41.652344 37.863281 41.828125 31.011719 41.984375 24.15625 C 42.136719 24.148438 42.292969 24.144531 42.449219 24.136719 C 42.898438 27.832031 43.023438 31.554688 43.195312 35.359375 Z M 43.195312 35.359375" stroke-linecap="round"/>
</g>
<g transform="matrix(17.8253 0 0 17.8253 660.2347 654.5439)" id="surface1">
<path style="stroke: none; stroke-width: 1; stroke-dasharray: none; stroke-linecap: butt; stroke-dashoffset: 0; stroke-linejoin: miter; stroke-miterlimit: 4; is-custom-font: none; font-file-url: none; fill: rgb(252,244,244); fill-rule: nonzero; opacity: 1;" transform=" translate(-32.9892, -34.1699)" d="M 32.703125 40.359375 C 32.652344 37.816406 32.640625 35.355469 32.5625 32.894531 C 32.484375 30.492188 32.339844 28.09375 32.230469 25.691406 C 32.21875 25.410156 32.1875 25.117188 32.242188 24.847656 C 32.292969 24.597656 32.453125 24.371094 32.566406 24.132812 C 32.78125 24.320312 33.0625 24.46875 33.195312 24.703125 C 33.34375 24.960938 33.402344 25.292969 33.410156 25.59375 C 33.539062 30.9375 33.664062 36.28125 33.765625 41.625 C 33.78125 42.300781 33.691406 42.980469 33.625 43.65625 C 33.605469 43.847656 33.492188 44.027344 33.320312 44.207031 C 32.644531 43.003906 32.804688 41.699219 32.703125 40.359375 Z M 32.703125 40.359375" stroke-linecap="round"/>
</g>
<g transform="matrix(17.8253 0 0 17.8253 708.963 660.6366)" id="surface1">
<path style="stroke: none; stroke-width: 1; stroke-dasharray: none; stroke-linecap: butt; stroke-dashoffset: 0; stroke-linejoin: miter; stroke-miterlimit: 4; is-custom-font: none; font-file-url: none; fill: rgb(252,244,244); fill-rule: nonzero; opacity: 1;" transform=" translate(-35.7228, -34.5117)" d="M 35.136719 29.382812 C 35.320312 27.691406 35.117188 26.015625 35.75 24.480469 C 35.875 24.484375 36 24.488281 36.125 24.488281 C 36.191406 25.027344 36.320312 25.566406 36.3125 26.105469 C 36.285156 29.863281 36.191406 33.621094 36.191406 37.378906 C 36.195312 39.703125 36.097656 42.007812 35.488281 44.265625 C 35.460938 44.359375 35.414062 44.449219 35.375 44.542969 C 35.292969 44.539062 35.214844 44.53125 35.132812 44.527344 C 35.132812 39.507812 35.132812 34.484375 35.136719 29.382812 Z M 35.136719 29.382812" stroke-linecap="round"/>
</g>
<g transform="matrix(17.8253 0 0 17.8253 541.6137 666.9381)" id="surface1">
<path style="stroke: none; stroke-width: 1; stroke-dasharray: none; stroke-linecap: butt; stroke-dashoffset: 0; stroke-linejoin: miter; stroke-miterlimit: 4; is-custom-font: none; font-file-url: none; fill: rgb(252,244,244); fill-rule: nonzero; opacity: 1;" transform=" translate(-26.3345, -34.8652)" d="M 27.089844 29.558594 C 26.972656 33.113281 26.894531 36.585938 26.730469 40.054688 C 26.660156 41.558594 26.410156 43.054688 26.238281 44.554688 C 26.160156 44.566406 26.082031 44.578125 26.003906 44.589844 C 25.910156 44.214844 25.746094 43.84375 25.730469 43.464844 C 25.652344 41.742188 25.546875 40.019531 25.578125 38.300781 C 25.648438 34.539062 25.777344 30.78125 25.917969 27.019531 C 25.941406 26.386719 26.140625 25.757812 26.410156 25.140625 C 27.257812 26.527344 27.074219 28.015625 27.089844 29.558594 Z M 27.089844 29.558594" stroke-linecap="round"/>
</g>
<g transform="matrix(17.8253 0 0 17.8253 396.9364 787.038)" id="surface1">
<path style="stroke: none; stroke-width: 1; stroke-dasharray: none; stroke-linecap: butt; stroke-dashoffset: 0; stroke-linejoin: miter; stroke-miterlimit: 4; is-custom-font: none; font-file-url: none; fill: rgb(249,237,239); fill-rule: nonzero; opacity: 1;" transform=" translate(-18.2181, -41.6028)" d="M 21.453125 41.515625 C 21.175781 42.453125 20.972656 43.335938 20.644531 44.175781 C 20.304688 45.039062 19.589844 45.542969 18.644531 45.5 C 17.832031 45.464844 16.976562 45.398438 16.222656 45.128906 C 14.996094 44.691406 14.460938 42.6875 15.304688 41.402344 C 15.226562 42.703125 16.035156 43.0625 16.898438 43.40625 C 17.707031 43.722656 18.535156 43.851562 19.285156 43.390625 C 19.664062 43.160156 20.035156 42.691406 20.128906 42.269531 C 20.402344 41.03125 20.53125 39.757812 20.726562 38.503906 C 20.757812 38.308594 20.828125 38.125 20.945312 37.703125 C 21.71875 39.003906 21.554688 40.230469 21.453125 41.515625 Z M 21.453125 41.515625" stroke-linecap="round"/>
</g>
<g transform="matrix(17.8253 0 0 17.8253 240.4509 442.2111)" id="surface1">
<path style="stroke: none; stroke-width: 1; stroke-dasharray: none; stroke-linecap: butt; stroke-dashoffset: 0; stroke-linejoin: miter; stroke-miterlimit: 4; is-custom-font: none; font-file-url: none; fill: rgb(249,239,239); fill-rule: nonzero; opacity: 1;" transform=" translate(-9.4393, -22.258)" d="M 5.140625 22.40625 C 6.5 22.019531 7.917969 22.027344 9.046875 21.132812 C 9.167969 21.039062 9.382812 20.972656 9.523438 21.011719 C 10.804688 21.359375 12.082031 21.730469 13.355469 22.109375 C 13.539062 22.164062 13.75 22.273438 13.851562 22.421875 C 14.097656 22.785156 14.132812 23.152344 13.546875 23.183594 C 13.066406 23.210938 12.558594 23.238281 12.097656 23.128906 C 10.289062 22.695312 8.535156 23.089844 6.773438 23.386719 C 6.382812 23.449219 5.984375 23.519531 5.589844 23.515625 C 4.796875 23.507812 4.652344 23.171875 5.140625 22.40625 Z M 5.140625 22.40625" stroke-linecap="round"/>
</g>
<g transform="matrix(17.8253 0 0 17.8253 764.4732 746.3513)" id="surface1">
<path style="stroke: none; stroke-width: 1; stroke-dasharray: none; stroke-linecap: butt; stroke-dashoffset: 0; stroke-linejoin: miter; stroke-miterlimit: 4; is-custom-font: none; font-file-url: none; fill: rgb(252,244,244); fill-rule: nonzero; opacity: 1;" transform=" translate(-38.8369, -39.3203)" d="M 38.460938 34.582031 C 38.578125 33.800781 38.683594 33.101562 38.792969 32.402344 C 38.898438 32.394531 39.007812 32.390625 39.113281 32.386719 C 39.207031 32.703125 39.382812 33.019531 39.375 33.335938 C 39.292969 37.484375 39.1875 41.632812 39.074219 45.785156 C 39.070312 45.949219 38.929688 46.105469 38.707031 46.253906 C 37.910156 42.398438 38.539062 38.519531 38.460938 34.582031 Z M 38.460938 34.582031" stroke-linecap="round"/>
</g>
<g transform="matrix(17.8253 0 0 17.8253 447.0195 374.5199)" id="surface1">
<path style="stroke: none; stroke-width: 1; stroke-dasharray: none; stroke-linecap: butt; stroke-dashoffset: 0; stroke-linejoin: miter; stroke-miterlimit: 4; is-custom-font: none; font-file-url: none; fill: rgb(249,234,234); fill-rule: nonzero; opacity: 1;" transform=" translate(-21.0278, -18.4606)" d="M 21.277344 13.152344 C 21.3125 13.082031 21.292969 13.09375 21.285156 13.09375 C 22.007812 13.398438 22.171875 14.007812 22.101562 14.699219 C 21.867188 17.082031 21.644531 19.46875 21.339844 21.84375 C 21.261719 22.4375 20.921875 23.003906 20.644531 23.554688 C 20.570312 23.699219 20.277344 23.738281 20.082031 23.828125 C 20.035156 23.632812 19.921875 23.4375 19.941406 23.25 C 20.246094 20.449219 20.558594 17.648438 20.894531 14.851562 C 20.960938 14.300781 21.125 13.761719 21.277344 13.152344 Z M 21.277344 13.152344" stroke-linecap="round"/>
</g>
<g transform="matrix(17.8253 0 0 17.8253 350.4718 363.7271)" id="surface1">
<path style="stroke: none; stroke-width: 1; stroke-dasharray: none; stroke-linecap: butt; stroke-dashoffset: 0; stroke-linejoin: miter; stroke-miterlimit: 4; is-custom-font: none; font-file-url: none; fill: rgb(249,234,237); fill-rule: nonzero; opacity: 1;" transform=" translate(-15.6115, -17.8551)" d="M 16.703125 12.925781 C 16.46875 15.425781 16.238281 17.867188 15.941406 20.296875 C 15.855469 21.015625 15.636719 21.726562 15.398438 22.410156 C 15.304688 22.679688 15 22.871094 14.789062 23.097656 C 14.71875 23.0625 14.644531 23.03125 14.570312 22.996094 C 14.554688 22.761719 14.5 22.523438 14.527344 22.292969 C 14.859375 19.546875 15.199219 16.800781 15.554688 14.058594 C 15.601562 13.699219 15.707031 13.335938 15.851562 13.003906 C 16.03125 12.59375 16.316406 12.414062 16.703125 12.925781 Z M 16.703125 12.925781" stroke-linecap="round"/>
</g>
<g transform="matrix(17.8253 0 0 17.8253 407.4188 161.6351)" id="surface1">
<path style="stroke: none; stroke-width: 1; stroke-dasharray: none; stroke-linecap: butt; stroke-dashoffset: 0; stroke-linejoin: miter; stroke-miterlimit: 4; is-custom-font: none; font-file-url: none; fill: rgb(249,239,239); fill-rule: nonzero; opacity: 1;" transform=" translate(-18.8062, -6.5177)" d="M 16.058594 5.855469 C 17.761719 5.789062 19.402344 5.679688 21.039062 5.738281 C 21.601562 5.757812 22.402344 6.027344 22.265625 6.828125 C 22.230469 7.011719 21.304688 7.105469 20.785156 7.140625 C 19.367188 7.230469 17.949219 7.285156 16.527344 7.3125 C 16.152344 7.320312 15.546875 7.300781 15.4375 7.089844 C 15.171875 6.59375 15.414062 6.105469 16.058594 5.855469 Z M 16.058594 5.855469" stroke-linecap="round"/>
</g>
<g transform="matrix(17.8253 0 0 17.8253 297.2409 780.6442)" id="surface1">
<path style="stroke: none; stroke-width: 1; stroke-dasharray: none; stroke-linecap: butt; stroke-dashoffset: 0; stroke-linejoin: miter; stroke-miterlimit: 4; is-custom-font: none; font-file-url: none; fill: rgb(249,234,237); fill-rule: nonzero; opacity: 1;" transform=" translate(-12.6252, -41.2441)" d="M 13.183594 44.171875 C 13.03125 44.605469 12.902344 44.972656 12.769531 45.339844 C 12.667969 45.320312 12.566406 45.304688 12.464844 45.289062 C 12.355469 44.5625 12.191406 43.839844 12.148438 43.109375 C 12.046875 41.453125 12 39.796875 11.949219 38.136719 C 11.945312 37.953125 12.023438 37.730469 12.136719 37.589844 C 12.289062 37.410156 12.515625 37.292969 12.710938 37.148438 C 12.855469 37.359375 13.117188 37.566406 13.128906 37.789062 C 13.214844 39.386719 13.265625 40.992188 13.300781 42.59375 C 13.308594 43.097656 13.234375 43.601562 13.183594 44.171875 Z M 13.183594 44.171875" stroke-linecap="round"/>
</g>
<g transform="matrix(17.8253 0 0 17.8253 175.1427 784.1953)" id="surface1">
<path style="stroke: none; stroke-width: 1; stroke-dasharray: none; stroke-linecap: butt; stroke-dashoffset: 0; stroke-linejoin: miter; stroke-miterlimit: 4; is-custom-font: none; font-file-url: none; fill: rgb(249,237,239); fill-rule: nonzero; opacity: 1;" transform=" translate(-5.7755, -41.4434)" d="M 6.371094 39.03125 C 6.335938 39.972656 6.292969 40.84375 6.324219 41.710938 C 6.371094 42.957031 5.964844 44.371094 5.15625 45.292969 C 5.125 44.875 5.078125 44.566406 5.078125 44.253906 C 5.070312 42.703125 5.050781 41.152344 5.082031 39.601562 C 5.09375 39.160156 5.191406 38.691406 5.371094 38.289062 C 5.492188 38.011719 5.820312 37.824219 6.054688 37.59375 C 6.199219 37.910156 6.363281 38.21875 6.476562 38.546875 C 6.515625 38.660156 6.425781 38.820312 6.371094 39.03125 Z M 6.371094 39.03125" stroke-linecap="round"/>
</g>
<g transform="matrix(17.8253 0 0 17.8253 298.0251 584.2872)" id="surface1">
<path style="stroke: none; stroke-width: 1; stroke-dasharray: none; stroke-linecap: butt; stroke-dashoffset: 0; stroke-linejoin: miter; stroke-miterlimit: 4; is-custom-font: none; font-file-url: none; fill: rgb(247,224,226); fill-rule: nonzero; opacity: 1;" transform=" translate(-12.6692, -30.2285)" d="M 12.71875 31.777344 C 12.582031 31.984375 12.46875 32.128906 12.28125 32.367188 C 12.28125 30.855469 12.28125 29.523438 12.28125 28.089844 C 13.214844 28.605469 13.234375 28.863281 12.71875 31.777344 Z M 12.71875 31.777344" stroke-linecap="round"/>
</g>
<g transform="matrix(17.8253 0 0 17.8253 381.5768 453.3696)" id="surface1">
<path style="stroke: none; stroke-width: 1; stroke-dasharray: none; stroke-linecap: butt; stroke-dashoffset: 0; stroke-linejoin: miter; stroke-miterlimit: 4; is-custom-font: none; font-file-url: none; fill: rgb(249,232,234); fill-rule: nonzero; opacity: 1;" transform=" translate(-17.3565, -22.884)" d="M 17.316406 21.808594 C 17.566406 21.875 17.980469 22.03125 17.964844 22.109375 C 17.863281 22.691406 17.703125 23.269531 17.488281 23.820312 C 17.445312 23.929688 17.089844 23.988281 16.90625 23.945312 C 16.816406 23.925781 16.714844 23.601562 16.757812 23.449219 C 16.898438 22.910156 17.101562 22.386719 17.316406 21.808594 Z M 17.316406 21.808594" stroke-linecap="round"/>
</g>
<g transform="matrix(17.8253 0 0 17.8253 310.2932 266.1472)" id="surface1">
<path style="stroke: none; stroke-width: 1; stroke-dasharray: none; stroke-linecap: butt; stroke-dashoffset: 0; stroke-linejoin: miter; stroke-miterlimit: 4; is-custom-font: none; font-file-url: none; fill: rgb(244,219,221); fill-rule: nonzero; opacity: 1;" transform=" translate(-13.3574, -12.3809)" d="M 12.84375 12.070312 C 12.972656 11.765625 13.113281 11.527344 13.25 11.285156 C 13.433594 11.511719 13.683594 11.714844 13.777344 11.976562 C 13.882812 12.257812 13.890625 12.597656 13.84375 12.898438 C 13.8125 13.101562 13.613281 13.285156 13.488281 13.476562 C 13.324219 13.304688 13.097656 13.164062 13.007812 12.960938 C 12.894531 12.710938 12.898438 12.410156 12.84375 12.070312 Z M 12.84375 12.070312" stroke-linecap="round"/>
</g>
<g transform="matrix(17.8253 0 0 17.8253 456.8328 263.6406)" id="surface1">
<path style="stroke: none; stroke-width: 1; stroke-dasharray: none; stroke-linecap: butt; stroke-dashoffset: 0; stroke-linejoin: miter; stroke-miterlimit: 4; is-custom-font: none; font-file-url: none; fill: rgb(249,234,234); fill-rule: nonzero; opacity: 1;" transform=" translate(-21.5783, -12.2402)" d="M 21.601562 12.375 C 21.5625 12.3125 21.542969 12.222656 21.554688 12.105469 C 21.597656 12.167969 21.613281 12.257812 21.601562 12.375 Z M 21.601562 12.375" stroke-linecap="round"/>
</g>
<g transform="matrix(17.8253 0 0 17.8253 245.8332 209.3838)" id="surface1">
<path style="stroke: none; stroke-width: 1; stroke-dasharray: none; stroke-linecap: butt; stroke-dashoffset: 0; stroke-linejoin: miter; stroke-miterlimit: 4; is-custom-font: none; font-file-url: none; fill: rgb(198,28,48); fill-rule: nonzero; opacity: 1;" transform=" translate(-9.7412, -9.1964)" d="M 8.695312 9.371094 C 9.042969 8.582031 9.640625 8.285156 10.339844 8.535156 C 11.066406 8.792969 10.6875 9.355469 10.695312 9.929688 C 10.144531 9.929688 9.636719 9.972656 9.136719 9.910156 C 8.96875 9.886719 8.835938 9.605469 8.695312 9.371094 Z M 8.695312 9.371094" stroke-linecap="round"/>
</g>
</svg>