<svg version="1.1" id="Layer_1" xmlns="http://www.w3.org/2000/svg" xmlns:xlink="http://www.w3.org/1999/xlink" x="0px" y="0px"
	 width="100%" viewBox="0 0 280 300" enable-background="new 0 0 280 300" xml:space="preserve">
<path fill="#C41026" opacity="1.000000" stroke="none" 
	d="
M75.000000,301.000000 
	C65.645767,301.000000 56.291542,301.000000 46.571178,300.581940 
	C41.664867,299.126007 37.136578,297.292084 32.581917,297.224060 
	C24.334015,297.100891 19.882425,291.974884 15.660228,286.231537 
	C6.752434,274.114502 4.056623,259.978790 3.090382,245.444473 
	C2.605463,238.150269 3.093319,230.795120 2.915179,223.473022 
	C2.886652,222.300507 1.668303,221.156952 0.999999,220.000000 
	C1.000000,214.977905 1.000000,209.955811 1.428779,204.558868 
	C2.129285,197.287292 2.411624,190.390839 2.602176,183.491852 
	C2.606294,183.342773 1.557577,183.164612 0.999999,183.000000 
	C1.000000,138.979111 1.000000,94.958214 1.427991,50.561356 
	C2.572194,43.749226 3.641951,37.329067 3.934266,30.873707 
	C4.638609,15.319274 7.361203,11.411917 22.548347,6.924635 
	C26.248447,5.831382 30.411676,6.330310 34.135876,5.288762 
	C42.020813,3.083575 49.730911,1.478589 57.611820,5.219645 
	C60.331104,6.510484 67.326904,3.740797 69.000000,1.000000 
	C72.361290,1.000000 75.722572,1.000000 79.356865,1.356497 
	C81.643112,2.809031 83.625381,4.755203 85.675842,4.829919 
	C90.423416,5.002915 95.199265,4.060853 99.972275,3.953294 
	C107.452293,3.784733 114.940536,4.012381 122.423050,3.909130 
	C125.840225,3.861978 129.787186,5.166031 132.000000,1.000000 
	C135.692902,1.000000 139.385818,1.000000 143.411224,1.397057 
	C146.673157,2.530748 149.601486,3.882841 152.532211,3.888100 
	C161.169601,3.903600 169.812500,3.063291 178.444458,3.184289 
	C184.683228,3.271742 190.895111,4.689831 197.141602,4.933009 
	C211.219666,5.481072 225.361649,5.078035 239.376175,6.262519 
	C245.940018,6.817286 252.793701,9.235727 258.535736,12.522266 
	C263.011047,15.083801 265.721710,20.491077 271.281860,22.276819 
	C272.513000,22.672220 273.615143,24.972979 273.896027,26.552959 
	C274.898865,32.193810 275.629791,37.890606 276.238342,43.590286 
	C276.489746,45.945148 276.195740,48.361832 276.106750,50.748787 
	C275.847687,57.696350 275.134186,64.660339 275.409943,71.585594 
	C275.718689,79.339172 278.925995,86.980606 276.144043,94.860901 
	C275.955627,95.394653 276.286804,96.125183 276.417145,96.755760 
	C276.933990,99.256622 277.818878,101.738197 277.932922,104.255661 
	C278.412445,114.841545 278.611633,125.440086 279.081146,136.026550 
	C279.126251,137.044067 280.332672,138.010071 281.000000,139.000000 
	C281.000000,146.687576 281.000000,154.375168 280.642090,162.362976 
	C278.632172,164.181076 277.969604,165.486679 281.000000,166.000000 
	C281.000000,194.687561 281.000000,223.375122 280.573425,252.436798 
	C279.826996,253.161346 279.208496,253.532028 279.230682,253.859253 
	C279.902008,263.754761 277.006439,273.025574 273.843567,282.133057 
	C272.473083,286.079346 270.476562,290.897644 267.262054,292.864685 
	C262.144379,295.996338 255.753677,297.028778 249.944870,299.072571 
	C249.166840,299.346313 248.642059,300.339813 248.000000,301.000000 
	C203.312439,301.000000 158.624878,301.000000 113.561569,300.571289 
	C112.677391,299.786133 112.170975,299.121857 111.660225,299.118530 
	C100.089203,299.042877 88.517426,299.007385 76.947029,299.107208 
	C76.292625,299.112885 75.648773,300.340912 75.000000,301.000000 
M123.924469,77.760887 
	C123.230560,80.957909 122.271324,84.123421 121.887375,87.357239 
	C119.933052,103.817932 118.104042,120.293747 116.323845,136.774292 
	C116.206657,137.859161 116.860474,139.027313 117.155678,140.156723 
	C118.277168,139.639938 119.982735,139.416595 120.416100,138.554077 
	C122.041527,135.318939 124.035255,131.975021 124.479477,128.491852 
	C126.261147,114.521523 127.555641,100.487862 128.937027,86.468430 
	C129.338638,82.392448 128.386032,78.819923 124.837105,76.669044 
	C125.181664,75.432388 125.526222,74.195732 126.165070,72.644485 
	C126.076752,72.108635 125.988441,71.572792 126.033852,70.304024 
	C124.109695,68.005722 122.604759,64.541985 120.169037,63.665798 
	C115.867744,62.118526 113.947792,59.486729 112.232872,55.589306 
	C111.160324,53.151779 108.689430,50.517277 106.253227,49.664436 
	C101.469856,47.989910 96.269516,47.513500 91.248207,46.508831 
	C88.609283,45.980835 87.090347,46.929733 86.701683,49.659760 
	C86.243019,52.881531 87.095863,55.483845 90.571587,56.052765 
	C94.292046,56.661747 98.121078,56.591034 101.854881,57.141552 
	C103.799812,57.428322 105.641716,58.413857 107.530159,59.083759 
	C106.126457,60.412258 104.790764,61.823341 103.302307,63.048897 
	C101.323082,64.678543 98.651230,65.788567 97.329491,67.810036 
	C95.830200,70.103073 96.347458,72.714569 99.936821,73.246841 
	C106.875443,74.275764 108.207970,75.818642 107.374992,83.004189 
	C106.478851,90.734535 105.147514,98.413414 104.130630,106.131157 
	C103.480431,111.065933 102.889046,116.022118 102.640396,120.987183 
	C102.572868,122.335487 103.845306,123.750900 104.502754,125.135506 
	C105.418594,124.114655 106.802780,123.238274 107.169884,122.048157 
	C108.831764,116.660400 110.797272,111.264198 111.549316,105.721230 
	C112.752296,96.854645 112.945404,87.855072 113.890755,78.946236 
	C114.087868,77.088669 115.332779,74.415924 116.762146,73.871788 
	C118.239708,73.309303 120.555023,74.817146 122.451668,75.553734 
	C123.152885,75.826057 123.705528,76.480942 123.924469,77.760887 
M168.554688,53.004707 
	C168.375549,62.156857 168.255142,71.310799 167.976044,80.459892 
	C167.906128,82.751549 167.613724,85.128426 166.863586,87.269974 
	C166.465576,88.406227 164.902435,89.783966 163.799103,89.844383 
	C162.651474,89.907219 160.770477,88.763496 160.366562,87.705780 
	C159.504532,85.448326 159.038818,82.906685 159.030197,80.479271 
	C158.993591,70.184784 159.396957,59.884155 159.139832,49.598267 
	C159.076096,47.048752 157.140091,44.546043 156.064713,42.021820 
	C154.750092,44.825848 152.354218,47.612499 152.308807,50.436932 
	C152.116486,62.401714 152.650085,74.377235 152.863022,86.349815 
	C152.987091,93.327530 155.936630,99.156273 159.994019,104.582115 
	C162.382339,107.775932 165.033920,110.839073 166.912750,114.314713 
	C167.651566,115.681442 167.286743,119.078117 166.263519,119.731064 
	C159.696609,123.921638 159.202698,130.754196 158.448792,137.231888 
	C158.216873,139.224564 160.240891,142.897827 161.971725,143.440094 
	C167.593079,145.201202 168.892746,149.121078 169.093109,154.088913 
	C169.528915,164.894302 170.087769,175.697861 170.307816,186.508041 
	C170.608597,201.286377 170.781906,216.070541 170.743546,230.851501 
	C170.713364,242.483307 170.148056,254.113739 170.117920,265.745544 
	C170.110260,268.697723 171.236038,271.652802 171.841019,274.606567 
	C172.349457,274.625916 172.857895,274.645233 173.366318,274.664581 
	C173.917755,273.253479 174.897049,271.858917 174.952271,270.428650 
	C175.355164,259.992004 175.643448,249.549393 175.820206,239.106155 
	C175.918167,233.317429 175.571350,227.520111 175.707153,221.733307 
	C175.980240,210.095673 176.586090,198.465057 176.794128,186.826904 
	C177.005310,175.012573 176.635071,163.181122 177.142960,151.384003 
	C177.256607,148.744476 179.375702,145.000748 181.615005,143.912369 
	C185.302368,142.120209 186.941101,139.477158 186.501617,136.206543 
	C185.860458,131.435013 185.164520,126.067879 182.550430,122.302498 
	C178.390717,116.310776 178.197220,111.219124 182.011536,105.403481 
	C184.104996,102.211617 186.154465,98.958992 187.852356,95.548843 
	C189.466721,92.306427 191.570450,88.879196 191.768326,85.436058 
	C192.522263,72.317337 192.607544,59.159668 192.888397,46.015388 
	C192.909027,45.049652 192.709396,43.950073 192.230270,43.138050 
	C191.721237,42.275333 190.849655,41.371983 189.951630,41.102829 
	C189.515305,40.972061 188.308762,42.135834 188.061783,42.908760 
	C187.512848,44.626678 187.099747,46.463638 187.070999,48.259113 
	C186.943161,56.246048 187.194931,64.245094 186.852798,72.220177 
	C186.663269,76.638382 185.740845,81.055000 184.778503,85.390129 
	C184.524170,86.535759 182.942245,88.094391 181.887024,88.161575 
	C180.762360,88.233192 178.913254,87.004990 178.489944,85.913818 
	C177.611801,83.650261 177.112793,81.106262 177.082474,78.669800 
	C176.937576,67.021385 177.109940,55.368698 176.929993,43.721237 
	C176.870605,39.877140 176.093430,36.044136 175.644470,32.206062 
	C174.878632,32.038620 174.112808,31.871180 173.346970,31.703737 
	C172.221893,33.693310 170.474182,35.572685 170.098587,37.694904 
	C169.261475,42.424828 169.109909,47.276081 168.554688,53.004707 
M213.667969,137.523697 
	C214.100571,140.600449 215.433762,142.778580 218.824722,143.332657 
	C222.858917,143.991867 223.992676,146.750656 224.071808,150.552200 
	C224.234543,158.371185 224.583145,166.190460 225.077286,173.995544 
	C225.208420,176.066666 226.146332,178.086716 226.713821,180.130203 
	C227.359039,180.088989 228.004242,180.047760 228.649460,180.006531 
	C229.052811,177.515793 229.667984,175.037827 229.819290,172.531860 
	C230.250427,165.391373 230.747711,158.238464 230.719589,151.092422 
	C230.700836,146.328293 232.456528,143.512100 237.107315,142.504654 
	C240.831635,141.697906 242.218735,139.104004 242.194290,135.563477 
	C242.144257,128.315781 240.477142,121.623718 234.426422,116.987648 
	C231.187531,114.506004 230.421295,111.808723 232.473633,108.446953 
	C235.049530,104.227516 237.892090,100.171669 240.512833,95.978508 
	C242.147171,93.363564 244.095856,90.790314 245.023087,87.914497 
	C249.459473,74.155014 248.210892,59.941372 247.846390,45.821571 
	C247.813675,44.554333 247.208008,43.301888 246.868423,42.042572 
	C246.345779,41.839981 245.823135,41.637386 245.300491,41.434795 
	C244.183868,43.640129 242.275955,45.780380 242.088287,48.062115 
	C241.297012,57.682991 241.110718,67.351898 240.499207,76.990288 
	C240.304520,80.058762 239.478653,83.094650 235.334778,82.999344 
	C231.590805,82.913246 229.860413,80.450401 229.619141,77.237274 
	C228.823212,66.638092 227.939270,56.036453 231.147980,45.566742 
	C232.246414,41.982655 232.361191,38.097103 232.946777,34.207096 
	C225.961365,33.984383 224.177231,35.543198 224.094208,41.254410 
	C223.958588,50.585365 224.096375,59.920628 223.926697,69.250580 
	C223.863464,72.727715 223.645309,76.297356 222.758804,79.628120 
	C222.234650,81.597466 220.264709,83.182007 218.944916,84.939590 
	C217.605392,83.400856 215.604019,82.062271 215.065445,80.281334 
	C213.975754,76.677956 213.323303,72.852394 213.135818,69.086327 
	C212.821442,62.771362 213.217377,56.420723 212.893585,50.106678 
	C212.754074,47.386459 211.563736,44.720127 210.850800,42.029316 
	C210.044250,42.024826 209.237701,42.020340 208.431152,42.015850 
	C207.646576,45.342262 206.214111,48.666019 206.200500,51.995583 
	C206.161728,61.476845 206.482910,70.974136 207.075668,80.439240 
	C207.643219,89.502014 209.157181,98.009674 217.867905,103.771362 
	C223.471649,107.477951 223.499329,112.419556 218.984299,117.361626 
	C213.842880,122.989357 212.286682,129.414886 213.667969,137.523697 
M33.136860,76.544434 
	C31.645746,87.487579 35.175411,90.751900 45.938408,88.401810 
	C46.911457,88.189346 48.065109,87.687508 48.856678,88.007736 
	C50.232334,88.564270 52.147686,89.461319 52.437912,90.578865 
	C52.760380,91.820549 51.902641,93.916443 50.852619,94.818405 
	C49.719982,95.791328 47.790615,95.926430 46.171368,96.221596 
	C43.884953,96.638390 41.356121,96.396179 39.313091,97.299767 
	C36.995045,98.324997 35.098736,100.303787 33.019073,101.868011 
	C35.322300,103.013687 37.527206,104.738243 39.954987,105.150589 
	C42.660347,105.610085 45.585556,104.599068 48.381413,104.772057 
	C49.907188,104.866463 51.363312,106.086647 52.850845,106.799126 
	C51.704433,108.006149 50.767433,109.804207 49.368919,110.299728 
	C46.257515,111.402161 42.883148,111.734741 39.676540,112.604462 
	C36.839859,113.373833 34.079433,114.609306 34.604103,118.289185 
	C35.142326,122.064117 38.243649,121.620956 40.860798,121.462349 
	C51.562931,120.813751 62.254265,119.978867 72.959450,119.393028 
	C76.651237,119.190994 76.902733,117.094604 75.524666,114.781242 
	C74.618477,113.260040 72.684784,111.986168 70.943504,111.408463 
	C67.965492,110.420456 64.710251,110.280067 61.710258,109.340500 
	C60.482323,108.955917 59.615536,107.418205 58.584461,106.405067 
	C59.760574,105.548920 60.863289,104.118134 62.128124,103.956566 
	C64.739883,103.622955 67.552330,104.458710 70.064873,103.876106 
	C72.111763,103.401466 73.842316,101.562531 75.713135,100.328545 
	C74.087738,98.735565 72.710312,96.326889 70.779121,95.739807 
	C67.844101,94.847534 64.521378,95.268112 61.369904,95.040207 
	C57.945549,94.792542 57.541954,92.996437 59.089970,90.304543 
	C61.454868,86.192131 65.344070,87.368851 68.922829,87.468399 
	C71.585747,87.542465 74.542267,88.103180 74.874382,84.099693 
	C75.209518,80.059578 72.955040,77.479294 68.986305,77.346352 
	C67.322243,77.290611 65.643250,77.178436 63.992641,77.328850 
	C60.655083,77.632957 59.697987,75.224609 59.999767,72.961792 
	C60.219788,71.312035 61.897251,69.490715 63.416019,68.494385 
	C64.660110,67.678238 66.724594,68.232300 68.246529,67.683189 
	C69.524673,67.222031 71.404572,66.107010 71.471146,65.171417 
	C71.563469,63.873653 70.539993,61.973354 69.404373,61.218853 
	C66.941696,59.582649 65.454132,57.511570 67.162560,55.067123 
	C68.603340,53.005623 70.988823,51.338245 73.310112,50.254726 
	C74.781548,49.567898 76.979164,50.623577 78.707268,50.243599 
	C80.221031,49.910748 81.534142,48.665371 82.935890,47.823086 
	C81.889336,46.508133 81.103020,44.612137 79.740784,44.001999 
	C77.095055,42.816994 74.125900,42.354095 71.228233,41.575230 
	C71.375656,39.914005 71.845291,38.508369 71.521660,37.318481 
	C71.083702,35.708244 70.037010,34.263573 69.251472,32.747871 
	C68.140724,33.984509 66.834190,35.101006 65.979065,36.494511 
	C65.250496,37.681770 65.178177,40.300034 64.580383,40.373566 
	C60.478905,40.878090 56.280579,41.235764 52.192322,40.835377 
	C50.885494,40.707390 49.859940,38.103878 48.625381,36.703854 
	C47.784645,35.750435 46.804337,34.920090 45.553391,33.713470 
	C44.901451,35.157326 44.352203,35.778580 44.411144,36.335457 
	C44.988544,41.790604 41.681091,43.100201 37.209469,43.268120 
	C36.380802,43.299236 35.530834,43.359184 34.735401,43.572517 
	C31.832287,44.351128 28.335716,44.914841 28.986906,49.029610 
	C29.594433,52.868492 32.952698,52.361450 35.780220,52.316479 
	C36.443996,52.305923 37.109749,52.224670 37.768661,52.133217 
	C44.916618,51.141102 44.961555,51.175522 45.795460,58.763721 
	C44.174221,59.796593 42.272648,60.626213 40.909512,61.992878 
	C39.741932,63.163486 39.191040,64.949188 38.367409,66.462860 
	C39.917244,67.108643 41.440132,67.831825 43.022930,68.382935 
	C45.730995,69.325859 49.033958,69.494644 51.073391,71.200478 
	C54.000240,73.648575 52.627754,76.688698 48.825432,77.273384 
	C41.406063,78.414276 41.406063,78.414276 35.143055,72.308647 
	C34.522167,73.577583 33.973938,74.698029 33.136860,76.544434 
M33.132423,163.487839 
	C36.262947,168.941467 37.930092,169.474319 44.126484,168.135620 
	C45.754524,167.783890 49.120014,168.587708 49.252987,169.309433 
	C50.181587,174.349411 50.781925,179.502319 50.863888,184.629013 
	C50.927608,188.614243 47.929474,190.525497 44.283348,190.826385 
	C40.764942,191.116714 38.046200,189.583939 37.360786,185.805038 
	C36.916878,183.357590 36.930523,180.826462 36.473713,178.382446 
	C36.324501,177.584122 35.414783,176.476944 34.713192,176.361740 
	C34.033379,176.250107 32.899494,177.052063 32.435501,177.760773 
	C27.104414,185.903671 31.403910,196.561279 40.803169,199.467712 
	C43.903862,200.426529 46.642185,202.557190 49.546196,204.152039 
	C47.196487,206.224899 44.736633,208.188629 42.536400,210.409561 
	C41.106365,211.853043 39.274277,213.603226 39.122303,215.346756 
	C39.029240,216.414413 41.613636,218.421692 43.273407,218.805389 
	C48.559410,220.027390 50.183094,223.338181 49.938900,228.287994 
	C49.750286,232.111298 49.681011,235.945419 49.710941,239.773560 
	C49.772079,247.591995 49.846451,255.412842 50.126572,263.225128 
	C50.188538,264.953308 51.127434,266.650055 51.662537,268.361298 
	C52.135483,268.334198 52.608433,268.307098 53.081383,268.279999 
	C53.602749,266.460144 54.499611,264.657562 54.584198,262.817627 
	C55.111191,251.355057 55.576378,239.886581 55.810925,228.414932 
	C55.927437,222.716354 57.435936,220.951050 62.597061,219.858124 
	C64.815735,219.388290 67.817650,217.580734 68.357964,215.757050 
	C68.820564,214.195633 66.525673,211.523590 64.967094,209.772995 
	C64.105011,208.804688 62.152969,208.897552 60.867634,208.192383 
	C59.251083,207.305481 57.813869,206.091690 56.299286,205.018936 
	C57.613106,203.469238 58.684353,201.561859 60.304153,200.463333 
	C62.190269,199.184174 64.778656,198.932617 66.645432,197.635315 
	C68.197067,196.557037 69.145164,194.610291 70.360603,193.048233 
	C68.698174,192.010849 67.058571,190.933212 65.355705,189.967102 
	C64.976082,189.751755 64.372948,189.904968 63.874588,189.928345 
	C60.049957,190.107635 58.726147,188.259018 58.524151,184.486328 
	C58.240597,179.190399 57.760754,173.800735 56.400261,168.708908 
	C55.676460,166.000015 53.406044,162.743042 50.976059,161.662796 
	C46.672340,159.749603 41.739944,159.169601 37.021534,158.297272 
	C33.577721,157.660599 31.905748,159.141403 33.132423,163.487839 
M123.945107,209.681534 
	C127.887894,196.722168 125.205055,183.652557 124.525452,170.623199 
	C124.484299,169.834290 123.459534,168.396622 123.103943,168.459351 
	C122.150505,168.627609 120.940346,169.251770 120.517784,170.055374 
	C119.931252,171.170807 119.873306,172.606598 119.757607,173.920074 
	C119.156738,180.741699 116.936035,183.145081 110.301964,183.766342 
	C107.324013,184.045227 104.305191,184.323868 101.332970,184.142593 
	C93.645668,183.673782 93.164040,182.915237 92.068527,175.366791 
	C91.687775,172.743240 93.148781,168.585739 88.796494,168.322281 
	C88.048927,168.277039 86.316055,173.126419 86.214554,175.760101 
	C85.773697,187.198624 85.655647,198.653778 85.642357,210.103165 
	C85.632713,218.408691 85.886581,226.718018 86.217125,235.017914 
	C86.295410,236.983871 87.152451,238.918823 87.651268,240.868027 
	C88.198380,240.875122 88.745491,240.882217 89.292603,240.889313 
	C89.707916,239.125702 90.482750,237.361374 90.479301,235.598587 
	C90.459198,225.299377 90.391609,214.996017 90.045631,204.703949 
	C89.917961,200.906036 90.664146,197.870850 94.630493,197.007233 
	C100.085075,195.819611 105.619286,194.497986 111.155762,194.311035 
	C118.280746,194.070435 119.457443,195.762344 119.647842,202.783524 
	C119.781433,207.709793 120.073753,212.631760 120.295189,217.555649 
	C120.855614,217.560760 121.416046,217.565887 121.976471,217.571014 
	C122.569214,215.208954 123.161957,212.846878 123.945107,209.681534 
M251.963150,207.508575 
	C250.972549,185.623657 250.247284,163.715759 247.618927,141.972641 
	C246.713043,142.016663 245.807175,142.060669 244.901291,142.104691 
	C244.003342,182.412628 242.970627,222.722290 247.762604,263.070526 
	C249.471619,259.423462 250.765762,255.697906 250.910233,251.928299 
	C251.464645,237.461823 251.650253,222.981201 251.963150,207.508575 
M190.794083,237.866379 
	C191.367386,245.293869 190.435699,252.963791 194.378082,260.030365 
	C195.380478,258.995056 196.026886,257.920410 196.139084,256.792633 
	C196.533920,252.824142 197.054352,248.831406 196.977280,244.858536 
	C196.367477,213.422195 195.647873,181.987930 194.887344,150.554810 
	C194.844330,148.777374 194.496231,146.818024 193.645996,145.305405 
	C192.875763,143.935165 191.224503,143.060165 189.961685,141.966797 
	C189.309845,143.358200 188.381699,144.692780 188.080673,146.156357 
	C187.752090,147.753906 187.937912,149.473907 188.013687,151.135345 
	C188.657822,165.257828 189.496994,179.373810 189.943420,193.502289 
	C190.400635,207.972855 190.480911,222.455322 190.794083,237.866379 
M204.951767,173.319931 
	C204.951767,202.854507 204.951767,232.389084 204.951767,261.923645 
	C205.416275,261.954010 205.880798,261.984375 206.345306,262.014740 
	C206.572754,261.468903 206.866180,260.940765 207.017975,260.374634 
	C210.577484,247.099884 211.132523,233.558304 211.126923,219.885452 
	C211.117874,197.775497 211.661026,175.665726 211.834167,153.554810 
	C211.858948,150.391586 211.118622,147.222366 210.732407,144.055908 
	C210.000977,144.037613 209.269562,144.019318 208.538132,144.001022 
	C204.856461,153.032135 206.024902,162.890381 204.951767,173.319931 
M158.026596,173.397202 
	C157.929398,164.799805 159.005554,156.033890 154.067123,147.894333 
	C152.488007,151.525772 151.320511,155.216949 151.182953,158.946106 
	C150.367401,181.056183 149.609085,203.171814 149.214767,225.292419 
	C149.034378,235.411728 149.643051,245.550430 150.093094,255.671463 
	C150.192078,257.897400 151.136642,260.085754 151.691818,262.291412 
	C152.148636,262.223602 152.605453,262.155823 153.062286,262.088013 
	C154.051117,253.263184 155.515213,244.460800 155.932938,235.609039 
	C156.895737,215.207123 157.350281,194.781235 158.026596,173.397202 
M125.233971,243.782486 
	C125.731819,236.650650 126.684418,229.445145 122.170189,221.781830 
	C121.494415,224.256577 121.078285,225.352997 120.904396,226.486572 
	C119.770325,233.879318 119.010918,241.350815 117.411942,248.639252 
	C116.866745,251.124359 114.698990,253.873077 112.491661,255.242767 
	C108.129616,257.949463 103.299500,257.201355 98.579254,255.322052 
	C93.533127,253.313004 88.810707,251.183609 89.270531,243.551041 
	C84.344200,251.113068 87.480804,262.892517 94.622902,265.468445 
	C99.035950,267.060089 104.009071,267.448120 108.762253,267.655945 
	C114.284294,267.897430 118.451317,264.931915 120.429565,259.848907 
	C122.345360,254.926392 123.528549,249.718750 125.233971,243.782486 
M29.632158,131.978180 
	C27.130243,136.303879 27.989275,138.275223 32.608280,138.327316 
	C34.904270,138.353210 37.222561,137.939407 39.502823,137.557602 
	C49.798752,135.833725 60.024326,133.494324 70.573227,136.043060 
	C73.265617,136.693558 76.215363,136.529236 79.026573,136.373337 
	C82.444389,136.183807 82.236916,134.020233 80.800270,131.885193 
	C80.212593,131.011810 78.980400,130.373657 77.913788,130.052963 
	C70.483459,127.818901 63.031643,125.652512 55.549294,123.600883 
	C54.738075,123.378448 53.475368,123.759445 52.782104,124.312134 
	C46.196320,129.562500 37.922661,129.517166 29.632158,131.978180 
M224.298569,203.873383 
	C224.813202,226.575485 221.140778,249.395798 225.784622,272.086670 
	C227.092697,271.219421 227.909637,270.278381 227.935638,269.316010 
	C228.594696,244.908173 229.208160,220.498825 229.687027,196.086929 
	C229.723328,194.236511 228.700745,192.365311 228.170364,190.503769 
	C227.541916,190.533356 226.913452,190.562943 226.285004,190.592514 
	C225.657455,194.713303 225.029892,198.834091 224.298569,203.873383 
M97.282196,75.667763 
	C95.180275,73.017006 93.522491,74.070450 92.472763,76.492668 
	C91.625275,78.448257 91.016777,80.586136 90.745171,82.700058 
	C88.671913,98.836121 86.688454,114.983887 84.743462,131.136002 
	C84.580841,132.486435 84.905022,133.895508 85.003029,135.277328 
	C85.428375,135.474045 85.853722,135.670761 86.279068,135.867477 
	C87.496910,134.535751 89.285286,133.399399 89.821289,131.834183 
	C91.204781,127.794128 92.496414,123.619888 93.001968,119.400650 
	C94.716087,105.095139 96.073906,90.746933 97.282196,75.667763 
M93.303894,34.555950 
	C89.908188,35.912476 88.502129,38.784664 90.045250,41.707500 
	C90.698318,42.944469 94.215157,43.063290 96.416794,43.018799 
	C104.697189,42.851460 112.980324,42.536049 121.244537,42.000107 
	C124.286316,41.802845 129.688843,41.250813 129.875412,40.155563 
	C130.677155,35.448555 125.998566,33.862961 122.731667,33.748749 
	C113.189430,33.415157 103.613243,34.052528 93.303894,34.555950 
M76.996025,259.443268 
	C77.205345,256.477203 77.643150,253.506393 77.581764,250.545944 
	C77.386284,241.119095 77.097809,231.691101 76.587608,222.277496 
	C76.517509,220.984192 74.989189,219.769928 74.135986,218.519073 
	C73.004395,219.370438 71.675751,220.060516 70.804527,221.124985 
	C70.126503,221.953400 69.678078,223.258133 69.709755,224.334045 
	C69.996994,234.089157 70.272346,243.848877 70.854576,253.589127 
	C71.111038,257.879456 72.067581,262.127899 72.706276,266.395386 
	C73.298630,266.495087 73.890984,266.594818 74.483345,266.694550 
	C75.254425,264.543884 76.025513,262.393250 76.996025,259.443268 
M37.311581,229.154236 
	C37.491333,228.344971 38.015099,227.417725 37.785667,226.748810 
	C37.124771,224.821884 36.159863,222.999237 35.314377,221.135620 
	C33.941833,222.484711 32.036835,223.601639 31.323330,225.238083 
	C30.290098,227.607849 29.707224,230.345032 29.654200,232.940231 
	C29.467775,242.064743 29.566305,251.195694 29.614637,260.323914 
	C29.624313,262.151520 29.888752,263.977814 30.086008,266.429749 
	C34.798969,260.997406 37.172070,252.682205 36.901669,245.366501 
	C36.712833,240.257355 36.958881,235.132111 37.311581,229.154236 
M74.320274,186.549347 
	C77.202377,169.772614 77.083603,168.266129 71.630859,165.228287 
	C71.630859,173.663864 71.630859,181.511826 71.630859,190.396500 
	C72.723946,189.004257 73.401253,188.141602 74.320274,186.549347 
M100.816368,128.587296 
	C99.764397,131.694412 98.582329,134.767059 97.743706,137.930725 
	C97.507347,138.822357 98.106110,140.742233 98.621735,140.858307 
	C99.694038,141.099701 101.774963,140.759064 102.021111,140.114929 
	C103.260803,136.870773 104.202164,133.479767 104.801041,130.061951 
	C104.883011,129.594101 102.459946,128.687332 100.816368,128.587296 
M74.977165,71.354919 
	C75.244980,72.998245 75.224884,74.767525 75.871353,76.245201 
	C76.392258,77.435852 77.718521,78.274162 78.687477,79.268799 
	C79.411186,78.140312 80.567482,77.079124 80.755974,75.867386 
	C81.030228,74.104294 80.976410,72.097931 80.373505,70.446884 
	C79.816063,68.920341 78.352020,67.724876 77.287254,66.383598 
	C76.484520,67.798279 75.681793,69.212959 74.977165,71.354919 
z"/>
<path fill="#000000" opacity="0.000000" stroke="none" 
	d="
M281.000000,138.531342 
	C280.332672,138.010071 279.126251,137.044067 279.081146,136.026550 
	C278.611633,125.440086 278.412445,114.841545 277.932922,104.255661 
	C277.818878,101.738197 276.933990,99.256622 276.417145,96.755760 
	C276.286804,96.125183 275.955627,95.394653 276.144043,94.860901 
	C278.925995,86.980606 275.718689,79.339172 275.409943,71.585594 
	C275.134186,64.660339 275.847687,57.696350 276.106750,50.748787 
	C276.195740,48.361832 276.489746,45.945148 276.238342,43.590286 
	C275.629791,37.890606 274.898865,32.193810 273.896027,26.552959 
	C273.615143,24.972979 272.513000,22.672220 271.281860,22.276819 
	C265.721710,20.491077 263.011047,15.083801 258.535736,12.522266 
	C252.793701,9.235727 245.940018,6.817286 239.376175,6.262519 
	C225.361649,5.078035 211.219666,5.481072 197.141602,4.933009 
	C190.895111,4.689831 184.683228,3.271742 178.444458,3.184289 
	C169.812500,3.063291 161.169601,3.903600 152.532211,3.888100 
	C149.601486,3.882841 146.673157,2.530748 143.871872,1.397057 
	C189.593918,1.000000 235.187820,1.000000 281.000000,1.000000 
	C281.000000,46.687328 281.000000,92.375008 281.000000,138.531342 
z"/>
<path fill="#000000" opacity="0.000000" stroke="none" 
	d="
M0.999999,220.468658 
	C1.668303,221.156952 2.886652,222.300507 2.915179,223.473022 
	C3.093319,230.795120 2.605463,238.150269 3.090382,245.444473 
	C4.056623,259.978790 6.752434,274.114502 15.660228,286.231537 
	C19.882425,291.974884 24.334015,297.100891 32.581917,297.224060 
	C37.136578,297.292084 41.664867,299.126007 46.102524,300.581940 
	C31.052269,301.000000 16.104538,301.000000 1.000000,301.000000 
	C1.000000,274.312622 1.000000,247.624969 0.999999,220.468658 
z"/>
<path fill="#000000" opacity="0.000000" stroke="none" 
	d="
M68.531342,1.000000 
	C67.326904,3.740797 60.331104,6.510484 57.611820,5.219645 
	C49.730911,1.478589 42.020813,3.083575 34.135876,5.288762 
	C30.411676,6.330310 26.248447,5.831382 22.548347,6.924635 
	C7.361203,11.411917 4.638609,15.319274 3.934266,30.873707 
	C3.641951,37.329067 2.572194,43.749226 1.427991,50.092697 
	C1.000000,33.727978 1.000000,17.455957 1.000000,1.000000 
	C23.353891,1.000000 45.708286,1.000000 68.531342,1.000000 
z"/>
<path fill="#000000" opacity="0.000000" stroke="none" 
	d="
M248.468658,301.000000 
	C248.642059,300.339813 249.166840,299.346313 249.944870,299.072571 
	C255.753677,297.028778 262.144379,295.996338 267.262054,292.864685 
	C270.476562,290.897644 272.473083,286.079346 273.843567,282.133057 
	C277.006439,273.025574 279.902008,263.754761 279.230682,253.859253 
	C279.208496,253.532028 279.826996,253.161346 280.573425,252.905457 
	C281.000000,268.913086 281.000000,284.826141 281.000000,301.000000 
	C270.313843,301.000000 259.625580,301.000000 248.468658,301.000000 
z"/>
<path fill="#000000" opacity="0.000000" stroke="none" 
	d="
M131.531342,1.000000 
	C129.787186,5.166031 125.840225,3.861978 122.423050,3.909130 
	C114.940536,4.012381 107.452293,3.784733 99.972275,3.953294 
	C95.199265,4.060853 90.423416,5.002915 85.675842,4.829919 
	C83.625381,4.755203 81.643112,2.809031 79.814934,1.356497 
	C97.020897,1.000000 114.041786,1.000000 131.531342,1.000000 
z"/>
<path fill="#000000" opacity="0.000000" stroke="none" 
	d="
M75.468658,301.000000 
	C75.648773,300.340912 76.292625,299.112885 76.947029,299.107208 
	C88.517426,299.007385 100.089203,299.042877 111.660225,299.118530 
	C112.170975,299.121857 112.677391,299.786133 113.092911,300.571289 
	C100.645775,301.000000 88.291542,301.000000 75.468658,301.000000 
z"/>
<path fill="#000000" opacity="0.000000" stroke="none" 
	d="
M0.999999,183.468536 
	C1.557577,183.164612 2.606294,183.342773 2.602176,183.491852 
	C2.411624,190.390839 2.129285,197.287292 1.428779,204.092010 
	C1.000000,197.312363 1.000000,190.624710 0.999999,183.468536 
z"/>
<path fill="#000000" opacity="0.000000" stroke="none" 
	d="
M281.000000,165.625000 
	C277.969604,165.486679 278.632172,164.181076 280.642090,162.831604 
	C281.000000,163.750000 281.000000,164.500000 281.000000,165.625000 
z"/>
<path fill="#FDF8F9" opacity="1.000000" stroke="none" 
	d="
M168.616852,52.541302 
	C169.109909,47.276081 169.261475,42.424828 170.098587,37.694904 
	C170.474182,35.572685 172.221893,33.693310 173.346970,31.703737 
	C174.112808,31.871180 174.878632,32.038620 175.644470,32.206062 
	C176.093430,36.044136 176.870605,39.877140 176.929993,43.721237 
	C177.109940,55.368698 176.937576,67.021385 177.082474,78.669800 
	C177.112793,81.106262 177.611801,83.650261 178.489944,85.913818 
	C178.913254,87.004990 180.762360,88.233192 181.887024,88.161575 
	C182.942245,88.094391 184.524170,86.535759 184.778503,85.390129 
	C185.740845,81.055000 186.663269,76.638382 186.852798,72.220177 
	C187.194931,64.245094 186.943161,56.246048 187.070999,48.259113 
	C187.099747,46.463638 187.512848,44.626678 188.061783,42.908760 
	C188.308762,42.135834 189.515305,40.972061 189.951630,41.102829 
	C190.849655,41.371983 191.721237,42.275333 192.230270,43.138050 
	C192.709396,43.950073 192.909027,45.049652 192.888397,46.015388 
	C192.607544,59.159668 192.522263,72.317337 191.768326,85.436058 
	C191.570450,88.879196 189.466721,92.306427 187.852356,95.548843 
	C186.154465,98.958992 184.104996,102.211617 182.011536,105.403481 
	C178.197220,111.219124 178.390717,116.310776 182.550430,122.302498 
	C185.164520,126.067879 185.860458,131.435013 186.501617,136.206543 
	C186.941101,139.477158 185.302368,142.120209 181.615005,143.912369 
	C179.375702,145.000748 177.256607,148.744476 177.142960,151.384003 
	C176.635071,163.181122 177.005310,175.012573 176.794128,186.826904 
	C176.586090,198.465057 175.980240,210.095673 175.707153,221.733307 
	C175.571350,227.520111 175.918167,233.317429 175.820206,239.106155 
	C175.643448,249.549393 175.355164,259.992004 174.952271,270.428650 
	C174.897049,271.858917 173.917755,273.253479 173.366318,274.664581 
	C172.857895,274.645233 172.349457,274.625916 171.841019,274.606567 
	C171.236038,271.652802 170.110260,268.697723 170.117920,265.745544 
	C170.148056,254.113739 170.713364,242.483307 170.743546,230.851501 
	C170.781906,216.070541 170.608597,201.286377 170.307816,186.508041 
	C170.087769,175.697861 169.528915,164.894302 169.093109,154.088913 
	C168.892746,149.121078 167.593079,145.201202 161.971725,143.440094 
	C160.240891,142.897827 158.216873,139.224564 158.448792,137.231888 
	C159.202698,130.754196 159.696609,123.921638 166.263519,119.731064 
	C167.286743,119.078117 167.651566,115.681442 166.912750,114.314713 
	C165.033920,110.839073 162.382339,107.775932 159.994019,104.582115 
	C155.936630,99.156273 152.987091,93.327530 152.863022,86.349815 
	C152.650085,74.377235 152.116486,62.401714 152.308807,50.436932 
	C152.354218,47.612499 154.750092,44.825848 156.064713,42.021820 
	C157.140091,44.546043 159.076096,47.048752 159.139832,49.598267 
	C159.396957,59.884155 158.993591,70.184784 159.030197,80.479271 
	C159.038818,82.906685 159.504532,85.448326 160.366562,87.705780 
	C160.770477,88.763496 162.651474,89.907219 163.799103,89.844383 
	C164.902435,89.783966 166.465576,88.406227 166.863586,87.269974 
	C167.613724,85.128426 167.906128,82.751549 167.976044,80.459892 
	C168.255142,71.310799 168.375549,62.156857 168.616852,52.541302 
z"/>
<path fill="#FEFAFA" opacity="1.000000" stroke="none" 
	d="
M213.534531,137.125488 
	C212.286682,129.414886 213.842880,122.989357 218.984299,117.361626 
	C223.499329,112.419556 223.471649,107.477951 217.867905,103.771362 
	C209.157181,98.009674 207.643219,89.502014 207.075668,80.439240 
	C206.482910,70.974136 206.161728,61.476845 206.200500,51.995583 
	C206.214111,48.666019 207.646576,45.342262 208.431152,42.015850 
	C209.237701,42.020340 210.044250,42.024826 210.850800,42.029316 
	C211.563736,44.720127 212.754074,47.386459 212.893585,50.106678 
	C213.217377,56.420723 212.821442,62.771362 213.135818,69.086327 
	C213.323303,72.852394 213.975754,76.677956 215.065445,80.281334 
	C215.604019,82.062271 217.605392,83.400856 218.944916,84.939590 
	C220.264709,83.182007 222.234650,81.597466 222.758804,79.628120 
	C223.645309,76.297356 223.863464,72.727715 223.926697,69.250580 
	C224.096375,59.920628 223.958588,50.585365 224.094208,41.254410 
	C224.177231,35.543198 225.961365,33.984383 232.946777,34.207096 
	C232.361191,38.097103 232.246414,41.982655 231.147980,45.566742 
	C227.939270,56.036453 228.823212,66.638092 229.619141,77.237274 
	C229.860413,80.450401 231.590805,82.913246 235.334778,82.999344 
	C239.478653,83.094650 240.304520,80.058762 240.499207,76.990288 
	C241.110718,67.351898 241.297012,57.682991 242.088287,48.062115 
	C242.275955,45.780380 244.183868,43.640129 245.300491,41.434795 
	C245.823135,41.637386 246.345779,41.839981 246.868423,42.042572 
	C247.208008,43.301888 247.813675,44.554333 247.846390,45.821571 
	C248.210892,59.941372 249.459473,74.155014 245.023087,87.914497 
	C244.095856,90.790314 242.147171,93.363564 240.512833,95.978508 
	C237.892090,100.171669 235.049530,104.227516 232.473633,108.446953 
	C230.421295,111.808723 231.187531,114.506004 234.426422,116.987648 
	C240.477142,121.623718 242.144257,128.315781 242.194290,135.563477 
	C242.218735,139.104004 240.831635,141.697906 237.107315,142.504654 
	C232.456528,143.512100 230.700836,146.328293 230.719589,151.092422 
	C230.747711,158.238464 230.250427,165.391373 229.819290,172.531860 
	C229.667984,175.037827 229.052811,177.515793 228.649460,180.006531 
	C228.004242,180.047760 227.359039,180.088989 226.713821,180.130203 
	C226.146332,178.086716 225.208420,176.066666 225.077286,173.995544 
	C224.583145,166.190460 224.234543,158.371185 224.071808,150.552200 
	C223.992676,146.750656 222.858917,143.991867 218.824722,143.332657 
	C215.433762,142.778580 214.100571,140.600449 213.534531,137.125488 
z"/>
<path fill="#FCF2F4" opacity="1.000000" stroke="none" 
	d="
M33.281284,76.181458 
	C33.973938,74.698029 34.522167,73.577583 35.143055,72.308647 
	C41.406063,78.414276 41.406063,78.414276 48.825432,77.273384 
	C52.627754,76.688698 54.000240,73.648575 51.073391,71.200478 
	C49.033958,69.494644 45.730995,69.325859 43.022930,68.382935 
	C41.440132,67.831825 39.917244,67.108643 38.367409,66.462860 
	C39.191040,64.949188 39.741932,63.163486 40.909512,61.992878 
	C42.272648,60.626213 44.174221,59.796593 45.795460,58.763721 
	C44.961555,51.175522 44.916618,51.141102 37.768661,52.133217 
	C37.109749,52.224670 36.443996,52.305923 35.780220,52.316479 
	C32.952698,52.361450 29.594433,52.868492 28.986906,49.029610 
	C28.335716,44.914841 31.832287,44.351128 34.735401,43.572517 
	C35.530834,43.359184 36.380802,43.299236 37.209469,43.268120 
	C41.681091,43.100201 44.988544,41.790604 44.411144,36.335457 
	C44.352203,35.778580 44.901451,35.157326 45.553391,33.713470 
	C46.804337,34.920090 47.784645,35.750435 48.625381,36.703854 
	C49.859940,38.103878 50.885494,40.707390 52.192322,40.835377 
	C56.280579,41.235764 60.478905,40.878090 64.580383,40.373566 
	C65.178177,40.300034 65.250496,37.681770 65.979065,36.494511 
	C66.834190,35.101006 68.140724,33.984509 69.251472,32.747871 
	C70.037010,34.263573 71.083702,35.708244 71.521660,37.318481 
	C71.845291,38.508369 71.375656,39.914005 71.228233,41.575230 
	C74.125900,42.354095 77.095055,42.816994 79.740784,44.001999 
	C81.103020,44.612137 81.889336,46.508133 82.935890,47.823086 
	C81.534142,48.665371 80.221031,49.910748 78.707268,50.243599 
	C76.979164,50.623577 74.781548,49.567898 73.310112,50.254726 
	C70.988823,51.338245 68.603340,53.005623 67.162560,55.067123 
	C65.454132,57.511570 66.941696,59.582649 69.404373,61.218853 
	C70.539993,61.973354 71.563469,63.873653 71.471146,65.171417 
	C71.404572,66.107010 69.524673,67.222031 68.246529,67.683189 
	C66.724594,68.232300 64.660110,67.678238 63.416019,68.494385 
	C61.897251,69.490715 60.219788,71.312035 59.999767,72.961792 
	C59.697987,75.224609 60.655083,77.632957 63.992641,77.328850 
	C65.643250,77.178436 67.322243,77.290611 68.986305,77.346352 
	C72.955040,77.479294 75.209518,80.059578 74.874382,84.099693 
	C74.542267,88.103180 71.585747,87.542465 68.922829,87.468399 
	C65.344070,87.368851 61.454868,86.192131 59.089970,90.304543 
	C57.541954,92.996437 57.945549,94.792542 61.369904,95.040207 
	C64.521378,95.268112 67.844101,94.847534 70.779121,95.739807 
	C72.710312,96.326889 74.087738,98.735565 75.713135,100.328545 
	C73.842316,101.562531 72.111763,103.401466 70.064873,103.876106 
	C67.552330,104.458710 64.739883,103.622955 62.128124,103.956566 
	C60.863289,104.118134 59.760574,105.548920 58.584461,106.405067 
	C59.615536,107.418205 60.482323,108.955917 61.710258,109.340500 
	C64.710251,110.280067 67.965492,110.420456 70.943504,111.408463 
	C72.684784,111.986168 74.618477,113.260040 75.524666,114.781242 
	C76.902733,117.094604 76.651237,119.190994 72.959450,119.393028 
	C62.254265,119.978867 51.562931,120.813751 40.860798,121.462349 
	C38.243649,121.620956 35.142326,122.064117 34.604103,118.289185 
	C34.079433,114.609306 36.839859,113.373833 39.676540,112.604462 
	C42.883148,111.734741 46.257515,111.402161 49.368919,110.299728 
	C50.767433,109.804207 51.704433,108.006149 52.850845,106.799126 
	C51.363312,106.086647 49.907188,104.866463 48.381413,104.772057 
	C45.585556,104.599068 42.660347,105.610085 39.954987,105.150589 
	C37.527206,104.738243 35.322300,103.013687 33.019073,101.868011 
	C35.098736,100.303787 36.995045,98.324997 39.313091,97.299767 
	C41.356121,96.396179 43.884953,96.638390 46.171368,96.221596 
	C47.790615,95.926430 49.719982,95.791328 50.852619,94.818405 
	C51.902641,93.916443 52.760380,91.820549 52.437912,90.578865 
	C52.147686,89.461319 50.232334,88.564270 48.856678,88.007736 
	C48.065109,87.687508 46.911457,88.189346 45.938408,88.401810 
	C35.175411,90.751900 31.645746,87.487579 33.281284,76.181458 
M50.670406,55.541279 
	C51.542725,56.500496 52.325569,58.162148 53.304192,58.286804 
	C56.203117,58.656063 59.179279,58.418930 62.396900,58.418930 
	C62.339153,55.026077 64.557526,51.730179 60.305244,50.197365 
	C56.232292,48.729198 52.752033,50.479076 50.670406,55.541279 
z"/>
<path fill="#FCF2F3" opacity="1.000000" stroke="none" 
	d="
M32.999783,163.147186 
	C31.905748,159.141403 33.577721,157.660599 37.021534,158.297272 
	C41.739944,159.169601 46.672340,159.749603 50.976059,161.662796 
	C53.406044,162.743042 55.676460,166.000015 56.400261,168.708908 
	C57.760754,173.800735 58.240597,179.190399 58.524151,184.486328 
	C58.726147,188.259018 60.049957,190.107635 63.874588,189.928345 
	C64.372948,189.904968 64.976082,189.751755 65.355705,189.967102 
	C67.058571,190.933212 68.698174,192.010849 70.360596,193.048233 
	C69.145164,194.610291 68.197067,196.557037 66.645432,197.635315 
	C64.778656,198.932617 62.190269,199.184174 60.304153,200.463333 
	C58.684353,201.561859 57.613106,203.469238 56.299286,205.018936 
	C57.813869,206.091690 59.251083,207.305481 60.867634,208.192383 
	C62.152969,208.897552 64.105011,208.804688 64.967094,209.772995 
	C66.525673,211.523590 68.820564,214.195633 68.357964,215.757050 
	C67.817650,217.580734 64.815735,219.388290 62.597061,219.858124 
	C57.435936,220.951050 55.927437,222.716354 55.810925,228.414932 
	C55.576378,239.886581 55.111191,251.355057 54.584198,262.817627 
	C54.499611,264.657562 53.602749,266.460144 53.081383,268.279999 
	C52.608433,268.307098 52.135483,268.334198 51.662537,268.361298 
	C51.127434,266.650055 50.188538,264.953308 50.126572,263.225128 
	C49.846451,255.412842 49.772079,247.591995 49.710941,239.773560 
	C49.681011,235.945419 49.750286,232.111298 49.938900,228.287994 
	C50.183094,223.338181 48.559410,220.027390 43.273407,218.805389 
	C41.613636,218.421692 39.029240,216.414413 39.122303,215.346756 
	C39.274277,213.603226 41.106365,211.853043 42.536400,210.409561 
	C44.736633,208.188629 47.196487,206.224899 49.546196,204.152039 
	C46.642185,202.557190 43.903862,200.426529 40.803169,199.467712 
	C31.403910,196.561279 27.104414,185.903671 32.435501,177.760773 
	C32.899494,177.052063 34.033379,176.250107 34.713192,176.361740 
	C35.414783,176.476944 36.324501,177.584122 36.473713,178.382446 
	C36.930523,180.826462 36.916878,183.357590 37.360786,185.805038 
	C38.046200,189.583939 40.764942,191.116714 44.283348,190.826385 
	C47.929474,190.525497 50.927608,188.614243 50.863888,184.629013 
	C50.781925,179.502319 50.181587,174.349411 49.252987,169.309433 
	C49.120014,168.587708 45.754524,167.783890 44.126484,168.135620 
	C37.930092,169.474319 36.262947,168.941467 32.999783,163.147186 
z"/>
<path fill="#FBEFF1" opacity="1.000000" stroke="none" 
	d="
M123.849899,210.083176 
	C123.161957,212.846878 122.569214,215.208954 121.976471,217.571014 
	C121.416046,217.565887 120.855614,217.560760 120.295189,217.555649 
	C120.073753,212.631760 119.781433,207.709793 119.647842,202.783524 
	C119.457443,195.762344 118.280746,194.070435 111.155762,194.311035 
	C105.619286,194.497986 100.085075,195.819611 94.630493,197.007233 
	C90.664146,197.870850 89.917961,200.906036 90.045631,204.703949 
	C90.391609,214.996017 90.459198,225.299377 90.479301,235.598587 
	C90.482750,237.361374 89.707916,239.125702 89.292603,240.889313 
	C88.745491,240.882217 88.198380,240.875122 87.651268,240.868027 
	C87.152451,238.918823 86.295410,236.983871 86.217125,235.017914 
	C85.886581,226.718018 85.632713,218.408691 85.642357,210.103165 
	C85.655647,198.653778 85.773697,187.198624 86.214554,175.760101 
	C86.316055,173.126419 88.048927,168.277039 88.796494,168.322281 
	C93.148781,168.585739 91.687775,172.743240 92.068527,175.366791 
	C93.164040,182.915237 93.645668,183.673782 101.332970,184.142593 
	C104.305191,184.323868 107.324013,184.045227 110.301964,183.766342 
	C116.936035,183.145081 119.156738,180.741699 119.757607,173.920074 
	C119.873306,172.606598 119.931252,171.170807 120.517784,170.055374 
	C120.940346,169.251770 122.150505,168.627609 123.103943,168.459351 
	C123.459534,168.396622 124.484299,169.834290 124.525452,170.623199 
	C125.205055,183.652557 127.887894,196.722168 123.849899,210.083176 
z"/>
<path fill="#FCF2F3" opacity="1.000000" stroke="none" 
	d="
M125.870781,72.959076 
	C125.526222,74.195732 125.181664,75.432388 124.519623,76.848991 
	C124.202141,77.028938 124.325935,76.961342 124.325935,76.961342 
	C123.705528,76.480942 123.152885,75.826057 122.451668,75.553734 
	C120.555023,74.817146 118.239708,73.309303 116.762146,73.871788 
	C115.332779,74.415924 114.087868,77.088669 113.890755,78.946236 
	C112.945404,87.855072 112.752296,96.854645 111.549316,105.721230 
	C110.797272,111.264198 108.831764,116.660400 107.169884,122.048157 
	C106.802780,123.238274 105.418594,124.114655 104.502754,125.135506 
	C103.845306,123.750900 102.572868,122.335487 102.640396,120.987183 
	C102.889046,116.022118 103.480431,111.065933 104.130630,106.131157 
	C105.147514,98.413414 106.478851,90.734535 107.374992,83.004189 
	C108.207970,75.818642 106.875443,74.275764 99.936821,73.246841 
	C96.347458,72.714569 95.830200,70.103073 97.329491,67.810036 
	C98.651230,65.788567 101.323082,64.678543 103.302307,63.048897 
	C104.790764,61.823341 106.126457,60.412258 107.530159,59.083759 
	C105.641716,58.413857 103.799812,57.428322 101.854881,57.141552 
	C98.121078,56.591034 94.292046,56.661747 90.571587,56.052765 
	C87.095863,55.483845 86.243019,52.881531 86.701683,49.659760 
	C87.090347,46.929733 88.609283,45.980835 91.248207,46.508831 
	C96.269516,47.513500 101.469856,47.989910 106.253227,49.664436 
	C108.689430,50.517277 111.160324,53.151779 112.232872,55.589306 
	C113.947792,59.486729 115.867744,62.118526 120.169037,63.665798 
	C122.604759,64.541985 124.109695,68.005722 125.807510,70.832855 
	C125.677704,71.894142 125.774246,72.426613 125.870781,72.959076 
z"/>
<path fill="#FDF6F7" opacity="1.000000" stroke="none" 
	d="
M251.968307,208.007217 
	C251.650253,222.981201 251.464645,237.461823 250.910233,251.928299 
	C250.765762,255.697906 249.471619,259.423462 247.762604,263.070526 
	C242.970627,222.722290 244.003342,182.412628 244.901291,142.104691 
	C245.807175,142.060669 246.713043,142.016663 247.618927,141.972641 
	C250.247284,163.715759 250.972549,185.623657 251.968307,208.007217 
z"/>
<path fill="#FDF6F7" opacity="1.000000" stroke="none" 
	d="
M190.760132,237.399475 
	C190.480911,222.455322 190.400635,207.972855 189.943420,193.502289 
	C189.496994,179.373810 188.657822,165.257828 188.013687,151.135345 
	C187.937912,149.473907 187.752090,147.753906 188.080673,146.156357 
	C188.381699,144.692780 189.309845,143.358200 189.961700,141.966797 
	C191.224503,143.060165 192.875763,143.935165 193.645996,145.305405 
	C194.496231,146.818024 194.844330,148.777374 194.887344,150.554810 
	C195.647873,181.987930 196.367477,213.422195 196.977280,244.858536 
	C197.054352,248.831406 196.533920,252.824142 196.139084,256.792633 
	C196.026886,257.920410 195.380478,258.995056 194.378082,260.030365 
	C190.435699,252.963791 191.367386,245.293869 190.760132,237.399475 
z"/>
<path fill="#FDF6F6" opacity="1.000000" stroke="none" 
	d="
M204.971466,172.846497 
	C206.024902,162.890381 204.856461,153.032135 208.538132,144.001022 
	C209.269562,144.019318 210.000977,144.037613 210.732407,144.055908 
	C211.118622,147.222366 211.858948,150.391586 211.834167,153.554810 
	C211.661026,175.665726 211.117874,197.775497 211.126923,219.885452 
	C211.132523,233.558304 210.577484,247.099884 207.017975,260.374634 
	C206.866180,260.940765 206.572754,261.468903 206.345306,262.014740 
	C205.880798,261.984375 205.416275,261.954010 204.951767,261.923645 
	C204.951767,232.389084 204.951767,202.854507 204.971466,172.846497 
z"/>
<path fill="#FDF5F6" opacity="1.000000" stroke="none" 
	d="
M158.018814,173.881134 
	C157.350281,194.781235 156.895737,215.207123 155.932938,235.609039 
	C155.515213,244.460800 154.051117,253.263184 153.062286,262.088013 
	C152.605453,262.155823 152.148636,262.223602 151.691818,262.291412 
	C151.136642,260.085754 150.192078,257.897400 150.093094,255.671463 
	C149.643051,245.550430 149.034378,235.411728 149.214767,225.292419 
	C149.609085,203.171814 150.367401,181.056183 151.182953,158.946106 
	C151.320511,155.216949 152.488007,151.525772 154.067123,147.894333 
	C159.005554,156.033890 157.929398,164.799805 158.018814,173.881134 
z"/>
<path fill="#FBEFF0" opacity="1.000000" stroke="none" 
	d="
M125.133743,244.209412 
	C123.528549,249.718750 122.345360,254.926392 120.429565,259.848907 
	C118.451317,264.931915 114.284294,267.897430 108.762253,267.655945 
	C104.009071,267.448120 99.035950,267.060089 94.622902,265.468445 
	C87.480804,262.892517 84.344200,251.113068 89.270531,243.551041 
	C88.810707,251.183609 93.533127,253.313004 98.579254,255.322052 
	C103.299500,257.201355 108.129616,257.949463 112.491661,255.242767 
	C114.698990,253.873077 116.866745,251.124359 117.411942,248.639252 
	C119.010918,241.350815 119.770325,233.879318 120.904396,226.486572 
	C121.078285,225.352997 121.494415,224.256577 122.170189,221.781830 
	C126.684418,229.445145 125.731819,236.650650 125.133743,244.209412 
z"/>
<path fill="#FBF1F2" opacity="1.000000" stroke="none" 
	d="
M29.983778,131.793442 
	C37.922661,129.517166 46.196320,129.562500 52.782104,124.312134 
	C53.475368,123.759445 54.738075,123.378448 55.549294,123.600883 
	C63.031643,125.652512 70.483459,127.818901 77.913788,130.052963 
	C78.980400,130.373657 80.212593,131.011810 80.800270,131.885193 
	C82.236916,134.020233 82.444389,136.183807 79.026573,136.373337 
	C76.215363,136.529236 73.265617,136.693558 70.573227,136.043060 
	C60.024326,133.494324 49.798752,135.833725 39.502823,137.557602 
	C37.222561,137.939407 34.904270,138.353210 32.608280,138.327316 
	C27.989275,138.275223 27.130243,136.303879 29.983778,131.793442 
z"/>
<path fill="#FDF5F6" opacity="1.000000" stroke="none" 
	d="
M224.350449,203.414124 
	C225.029892,198.834091 225.657455,194.713303 226.285004,190.592514 
	C226.913452,190.562943 227.541916,190.533356 228.170364,190.503769 
	C228.700745,192.365311 229.723328,194.236511 229.687027,196.086929 
	C229.208160,220.498825 228.594696,244.908173 227.935638,269.316010 
	C227.909637,270.278381 227.092697,271.219421 225.784622,272.086670 
	C221.140778,249.395798 224.813202,226.575485 224.350449,203.414124 
z"/>
<path fill="#FAEBED" opacity="1.000000" stroke="none" 
	d="
M124.125198,77.361115 
	C124.325935,76.961342 124.202141,77.028938 124.166168,77.026443 
	C128.386032,78.819923 129.338638,82.392448 128.937027,86.468430 
	C127.555641,100.487862 126.261147,114.521523 124.479477,128.491852 
	C124.035255,131.975021 122.041527,135.318939 120.416100,138.554077 
	C119.982735,139.416595 118.277168,139.639938 117.155678,140.156738 
	C116.860474,139.027313 116.206657,137.859161 116.323845,136.774292 
	C118.104042,120.293747 119.933052,103.817932 121.887375,87.357239 
	C122.271324,84.123421 123.230560,80.957909 124.125198,77.361115 
z"/>
<path fill="#FAECEE" opacity="1.000000" stroke="none" 
	d="
M97.425026,76.041397 
	C96.073906,90.746933 94.716087,105.095139 93.001968,119.400650 
	C92.496414,123.619888 91.204781,127.794128 89.821289,131.834183 
	C89.285286,133.399399 87.496910,134.535751 86.279068,135.867477 
	C85.853722,135.670761 85.428375,135.474045 85.003029,135.277328 
	C84.905022,133.895508 84.580841,132.486435 84.743462,131.136002 
	C86.688454,114.983887 88.671913,98.836121 90.745171,82.700058 
	C91.016777,80.586136 91.625275,78.448257 92.472763,76.492668 
	C93.522491,74.070450 95.180275,73.017006 97.425026,76.041397 
z"/>
<path fill="#FBF0F1" opacity="1.000000" stroke="none" 
	d="
M93.677124,34.432644 
	C103.613243,34.052528 113.189430,33.415157 122.731667,33.748749 
	C125.998566,33.862961 130.677155,35.448555 129.875412,40.155563 
	C129.688843,41.250813 124.286316,41.802845 121.244537,42.000107 
	C112.980324,42.536049 104.697189,42.851460 96.416794,43.018799 
	C94.215157,43.063290 90.698318,42.944469 90.045250,41.707500 
	C88.502129,38.784664 89.908188,35.912476 93.677124,34.432644 
z"/>
<path fill="#FBEDEF" opacity="1.000000" stroke="none" 
	d="
M76.896317,259.842926 
	C76.025513,262.393250 75.254425,264.543884 74.483345,266.694550 
	C73.890984,266.594818 73.298630,266.495087 72.706276,266.395386 
	C72.067581,262.127899 71.111038,257.879456 70.854576,253.589127 
	C70.272346,243.848877 69.996994,234.089157 69.709755,224.334045 
	C69.678078,223.258133 70.126503,221.953400 70.804527,221.124985 
	C71.675751,220.060516 73.004395,219.370438 74.135986,218.519073 
	C74.989189,219.769928 76.517509,220.984192 76.587608,222.277496 
	C77.097809,231.691101 77.386284,241.119095 77.581764,250.545944 
	C77.643150,253.506393 77.205345,256.477203 76.896317,259.842926 
z"/>
<path fill="#FBEFF1" opacity="1.000000" stroke="none" 
	d="
M37.161133,229.584152 
	C36.958881,235.132111 36.712833,240.257355 36.901669,245.366501 
	C37.172070,252.682205 34.798969,260.997406 30.086008,266.429749 
	C29.888752,263.977814 29.624313,262.151520 29.614637,260.323914 
	C29.566305,251.195694 29.467775,242.064743 29.654200,232.940231 
	C29.707224,230.345032 30.290098,227.607849 31.323330,225.238083 
	C32.036835,223.601639 33.941833,222.484711 35.314377,221.135620 
	C36.159863,222.999237 37.124771,224.821884 37.785667,226.748810 
	C38.015099,227.417725 37.491333,228.344971 37.161133,229.584152 
z"/>
<path fill="#F8E2E5" opacity="1.000000" stroke="none" 
	d="
M74.199417,186.914139 
	C73.401253,188.141602 72.723946,189.004257 71.630859,190.396500 
	C71.630859,181.511826 71.630859,173.663864 71.630859,165.228287 
	C77.083603,168.266129 77.202377,169.772614 74.199417,186.914139 
z"/>
<path fill="#FAE9EB" opacity="1.000000" stroke="none" 
	d="
M101.006531,128.285538 
	C102.459946,128.687332 104.883011,129.594101 104.801041,130.061951 
	C104.202164,133.479767 103.260803,136.870773 102.021111,140.114929 
	C101.774963,140.759064 99.694038,141.099701 98.621735,140.858307 
	C98.106110,140.742233 97.507347,138.822357 97.743706,137.930725 
	C98.582329,134.767059 99.764397,131.694412 101.006531,128.285538 
z"/>
<path fill="#F7DDE0" opacity="1.000000" stroke="none" 
	d="
M74.928116,70.991280 
	C75.681793,69.212959 76.484520,67.798279 77.287247,66.383598 
	C78.352020,67.724876 79.816063,68.920341 80.373505,70.446884 
	C80.976410,72.097931 81.030228,74.104294 80.755974,75.867386 
	C80.567482,77.079124 79.411186,78.140312 78.687477,79.268799 
	C77.718521,78.274162 76.392258,77.435852 75.871353,76.245201 
	C75.224884,74.767525 75.244980,72.998245 74.928116,70.991280 
z"/>
<path fill="#FAEBED" opacity="1.000000" stroke="none" 
	d="
M126.017929,72.801781 
	C125.774246,72.426613 125.677704,71.894142 125.740646,71.199310 
	C125.988441,71.572792 126.076752,72.108635 126.017929,72.801781 
z"/>
<path fill="#C71E32" opacity="1.000000" stroke="none" 
	d="
M50.714085,55.126549 
	C52.752033,50.479076 56.232292,48.729198 60.305244,50.197365 
	C64.557526,51.730179 62.339153,55.026077 62.396900,58.418930 
	C59.179279,58.418930 56.203117,58.656063 53.304192,58.286804 
	C52.325569,58.162148 51.542725,56.500496 50.714085,55.126549 
z"/>
</svg>